<?xml version="1.0" encoding="UTF-8" standalone="no"?>
<svg width="42px" height="43px" viewBox="0 0 42 43" version="1.1" xmlns="http://www.w3.org/2000/svg" xmlns:xlink="http://www.w3.org/1999/xlink" xmlns:sketch="http://www.bohemiancoding.com/sketch/ns">
    <!-- Generator: Sketch 3.0.4 (8054) - http://www.bohemiancoding.com/sketch -->
    <title>Imported Layers</title>
    <desc>Created with Sketch.</desc>
    <defs></defs>
    <g id="Navigation-v2" stroke="none" stroke-width="1" fill="none" fill-rule="evenodd" sketch:type="MSPage">
        <g id="Nav-Desktop" sketch:type="MSArtboardGroup" transform="translate(-39.000000, -19.000000)" fill="#FFFFFF">
            <g id="Imported-Layers" sketch:type="MSLayerGroup" transform="translate(39.000000, 20.000000)">
                <path d="M20.9381739,34.3072174 C13.4673913,34.3072174 7.38965217,28.2292174 7.38965217,20.7581739 C7.38965217,13.2873913 13.4673913,7.20913043 20.9381739,7.20913043 C28.4092174,7.20913043 34.4872174,13.2873913 34.4872174,20.7581739 C34.4872174,28.2292174 28.4092174,34.3072174 20.9381739,34.3072174 L20.9381739,34.3072174 Z M20.9381739,7.86652174 C13.83,7.86652174 8.04678261,13.6494783 8.04678261,20.7581739 C8.04678261,27.8663478 13.83,33.6495652 20.9381739,33.6495652 C28.0466087,33.6495652 33.8295652,27.8663478 33.8295652,20.7581739 C33.8295652,13.6494783 28.0466087,7.86652174 20.9381739,7.86652174 L20.9381739,7.86652174 Z" id="Fill-1" sketch:type="MSShapeGroup"></path>
                <path d="M5.82886957,15.5050435 C6.09469565,14.7696522 5.69347826,14.2510435 4.99513043,13.9987826 C4.17704348,13.7032174 3.6086087,14.0350435 3.35947826,14.7250435 C3.29686957,14.8985217 3.282,15.0427826 3.29634783,15.0806087 C3.31069565,15.1184348 3.396,15.153913 3.59034783,15.224087 L5.04469565,15.7494783 C5.4453913,15.8945217 5.67078261,15.9430435 5.82886957,15.5050435" id="Fill-2" sketch:type="MSShapeGroup"></path>
                <path d="M5.718,25.4551304 C5.58756522,25.0356522 5.13886957,24.6735652 4.2453913,24.9516522 C3.66626087,25.131913 2.9546087,25.6246957 3.17791304,26.342087 C3.3266087,26.8207826 3.80347826,27.0954783 4.6466087,26.8330435 C5.28026087,26.6358261 5.92565217,26.1221739 5.718,25.4551304" id="Fill-3" sketch:type="MSShapeGroup"></path>
                <path d="M3.97017391,17.7425217 L3.41973913,17.838 C3.17791304,17.8734783 3.09104348,17.8857391 3.05713043,17.9024348 L3.05582609,17.9110435 C3.08321739,17.9334783 3.18573913,17.9861739 3.37643478,18.098087 L3.85356522,18.3644348 C3.97121739,18.4330435 3.97330435,18.42 3.99078261,18.315913 L4.06565217,17.8651304 C4.086,17.7438261 4.08,17.7250435 3.97017391,17.7425217" id="Fill-4" sketch:type="MSShapeGroup"></path>
                <path d="M33.8726087,9.26713043 C34.1551304,9.59191304 34.443913,9.60313043 34.7587826,9.32921739 C35.0206957,9.10173913 35.1026087,8.7333913 34.851913,8.44513043 C34.701913,8.27269565 34.6891304,8.27791304 34.5367826,8.41043478 L33.8467826,9.00991304 C33.7408696,9.10226087 33.734087,9.108 33.8726087,9.26713043" id="Fill-5" sketch:type="MSShapeGroup"></path>
                <path d="M20.8356522,-0.121043478 C9.33730435,-0.121043478 -0.0169565217,9.23347826 -0.0169565217,20.7318261 C-0.0169565217,32.2293913 9.33730435,41.5836522 20.8356522,41.5836522 C32.334,41.5836522 41.6893043,32.2293913 41.6893043,20.7318261 C41.6893043,9.23347826 32.334,-0.121043478 20.8356522,-0.121043478 L20.8356522,-0.121043478 Z M38.4266087,13.5506087 C38.432087,13.5673043 38.4336522,13.5853043 38.424,13.5978261 C38.3269565,13.653913 38.3426087,13.7133913 38.4386087,13.9964348 L39.0133043,15.6933913 C39.0824348,15.8971304 39.116087,15.9555652 39.2287826,15.9733043 C39.2426087,15.9868696 39.2564348,16.0006957 39.2621739,16.0171304 C39.2705217,16.0421739 39.2692174,16.065913 39.2595652,16.0784348 C39.0748696,16.0946087 38.706,16.1825217 38.5771304,16.2401739 C38.5369565,16.2305217 38.5046087,16.1626957 38.5210435,16.1152174 C38.8273043,15.9513913 38.8792174,15.8454783 38.7284348,15.4004348 L38.6483478,15.1633043 C38.6118261,15.0553043 38.6021739,15.054 38.4273913,15.1132174 L36.6302609,15.7218261 C36.1893913,15.8713043 36.1896522,15.9127826 36.2347826,16.1152174 L36.2689565,16.2706957 C36.2496522,16.3098261 36.1734783,16.3312174 36.1458261,16.3030435 C36.072,16.0591304 36.0127826,15.8705217 35.9512174,15.6876522 C35.8888696,15.5045217 35.8186957,15.3104348 35.720087,15.0472174 C35.7253043,15.008087 35.8072174,14.9757391 35.838,14.997913 L35.9178261,15.1656522 C36.0005217,15.3553043 36.026087,15.3886957 36.4666957,15.2392174 L38.2638261,14.6306087 C38.4386087,14.5713913 38.4453913,14.5643478 38.4086087,14.4563478 L38.330087,14.2231304 C38.2001739,13.8406957 38.1164348,13.743913 37.7272174,13.704 C37.6925217,13.6833913 37.6753043,13.5918261 37.7113043,13.5610435 C37.9601739,13.5558261 38.2387826,13.5307826 38.3945217,13.5104348 C38.4096522,13.5146087 38.4195652,13.5297391 38.4266087,13.5506087 L38.4266087,13.5506087 Z M37.4723478,12.186 L37.4418261,12.0931304 C37.4561739,12.0521739 37.5289565,12.0216522 37.56,12.0456522 C37.6366957,12.2233043 37.7191304,12.4030435 37.8075652,12.5848696 C37.8918261,12.7588696 37.982087,12.9346957 38.0744348,13.1047826 C38.0741739,13.1441739 38.0047826,13.1825217 37.9635652,13.1684348 L37.9095652,13.0873043 C37.7958261,12.9130435 37.7663478,12.8833043 37.3476522,13.0865217 L35.8771304,13.8002609 C35.4584348,14.0037391 35.4633913,14.0449565 35.5301739,14.2424348 L35.5604348,14.3350435 C35.5463478,14.376 35.4730435,14.4067826 35.442,14.3827826 C35.3655652,14.2048696 35.2831304,14.0251304 35.1986087,13.8513913 C35.114087,13.6773913 35.0201739,13.4934783 34.928087,13.3233913 C34.9283478,13.2842609 34.9974783,13.2453913 35.0386957,13.2597391 L35.0926957,13.3411304 C35.2066957,13.5153913 35.2356522,13.5451304 35.6546087,13.341913 L37.1251304,12.627913 C37.544087,12.4246957 37.5386087,12.3834783 37.4723478,12.186 L37.4723478,12.186 Z M35.3394783,20.7581739 C35.3394783,28.7113043 28.8918261,35.1592174 20.9381739,35.1592174 C12.9847826,35.1592174 6.5373913,28.7113043 6.5373913,20.7581739 C6.5373913,12.8047826 12.9847826,6.35713043 20.9381739,6.35713043 C28.8918261,6.35713043 35.3394783,12.8047826 35.3394783,20.7581739 L35.3394783,20.7581739 Z M35.8106087,10.5706957 C36.1797391,10.3403478 36.6654783,10.4209565 37.0048696,10.9656522 C37.1256522,11.1594783 37.1692174,11.3293043 37.2448696,11.5254783 C37.1885217,11.6175652 36.9654783,11.8085217 36.7901739,11.9178261 C36.7447826,11.919913 36.6996522,11.8549565 36.7046087,11.8053913 C36.8634783,11.6282609 37.0322609,11.342087 36.8345217,11.0251304 C36.6485217,10.7266957 36.378,10.7243478 36.1802609,10.8477391 C36.0237391,10.9453043 35.9230435,11.157913 35.946,11.4855652 L35.9671304,11.7936522 C35.9913913,12.1150435 35.9277391,12.5277391 35.5507826,12.7625217 C35.1255652,13.0273043 34.6213043,12.8913913 34.2842609,12.3506087 C34.0703478,12.0073043 34.0612174,11.7438261 34.0596522,11.6413043 C34.095913,11.5254783 34.3231304,11.3165217 34.5568696,11.175913 C34.608,11.1751304 34.6513043,11.2361739 34.6437391,11.2823478 C34.4953043,11.468087 34.221913,11.918087 34.4496522,12.2835652 C34.6262609,12.5671304 34.8978261,12.6206087 35.1253043,12.4786957 C35.3381739,12.3461739 35.4466957,12.1385217 35.4289565,11.7613043 L35.4185217,11.5450435 C35.4007826,11.1678261 35.4751304,10.7796522 35.8106087,10.5706957 L35.8106087,10.5706957 Z M34.2263478,7.7253913 L34.1616522,7.63069565 C34.1647826,7.5873913 34.2177391,7.54121739 34.2571304,7.55321739 C34.4587826,7.74469565 34.7133913,8.01808696 34.95,8.28991304 C35.1746087,8.54869565 35.3376522,8.80304348 35.3848696,9.018 C35.442,9.26504348 35.3932174,9.52304348 35.1542609,9.73069565 C34.8490435,9.99547826 34.4921739,9.89295652 34.2845217,9.78808696 C34.2573913,9.77686957 34.2365217,9.8066087 34.2281739,9.83713043 C34.0111304,10.4913913 33.8733913,10.902 33.8793913,11.1701739 C33.8804348,11.3321739 33.944087,11.445913 33.9756522,11.4884348 C33.9766957,11.5163478 33.939913,11.5484348 33.9151304,11.5526087 C33.8705217,11.5215652 33.8058261,11.4673043 33.7048696,11.3512174 C33.4283478,11.0329565 33.4074783,10.748087 33.54,10.2777391 C33.6018261,10.0672174 33.7033043,9.81573913 33.7635652,9.624 C33.8110435,9.47765217 33.7927826,9.42965217 33.6975652,9.32034783 C33.6112174,9.22095652 33.6046957,9.22043478 33.5353043,9.28095652 L33.1108696,9.64982609 C32.7594783,9.95530435 32.7753913,9.99391304 32.8909565,10.1668696 L32.9444348,10.2485217 C32.9413043,10.2918261 32.8786957,10.3406087 32.8426957,10.3257391 C32.7221739,10.1741739 32.595913,10.0218261 32.4691304,9.876 C32.342087,9.73017391 32.2093043,9.58356522 32.07,9.43695652 C32.0603478,9.3986087 32.1114783,9.33704348 32.1602609,9.34669565 L32.2338261,9.41086957 C32.3890435,9.5493913 32.4253043,9.57052174 32.7766957,9.26530435 L33.99,8.21034783 C34.3085217,7.93356522 34.3453043,7.896 34.2263478,7.7253913 L34.2263478,7.7253913 Z M32.0796522,5.80852174 L32.0311304,5.7566087 C32.0274783,5.71330435 32.0812174,5.65565217 32.1195652,5.66452174 C32.2421739,5.77773913 32.3976522,5.9133913 32.5466087,6.03730435 L33.1909565,6.57391304 C33.4069565,6.75391304 33.6057391,6.91330435 33.6553043,6.94304348 C33.6211304,7.01165217 33.4192174,7.29521739 33.3187826,7.45721739 C33.2827826,7.47313043 33.2094783,7.42356522 33.1995652,7.38078261 C33.3083478,7.14 33.3281739,7.01373913 33.2426087,6.8966087 C33.1844348,6.80843478 33.0889565,6.7173913 32.9976522,6.64147826 L32.7717391,6.45313043 C32.6264348,6.33208696 32.6209565,6.33913043 32.4607826,6.5313913 L31.9854783,7.10191304 C31.9126957,7.18956522 31.9132174,7.19582609 31.9906957,7.26052174 L32.1526957,7.3953913 C32.4466957,7.63982609 32.5066957,7.68417391 32.6512174,7.55895652 L32.7701739,7.46373913 C32.8171304,7.46243478 32.8813043,7.51591304 32.8755652,7.5573913 C32.7962609,7.64582609 32.6885217,7.76165217 32.5841739,7.88634783 C32.4777391,8.01469565 32.385913,8.13834783 32.2995652,8.24895652 C32.2627826,8.2586087 32.1988696,8.20513043 32.1886957,8.16234783 L32.2773913,8.00765217 C32.3718261,7.84617391 32.3201739,7.79165217 32.0264348,7.54747826 L31.8644348,7.41234783 C31.7869565,7.34765217 31.7775652,7.35182609 31.7073913,7.43608696 L31.3507826,7.86469565 C31.2073043,8.03713043 31.1128696,8.16417391 31.1157391,8.26356522 C31.1167826,8.34443478 31.1517391,8.41930435 31.4353043,8.6553913 C31.8581739,9.01904348 32.0141739,8.98304348 32.360087,8.808 C32.409913,8.80982609 32.4589565,8.86747826 32.4508696,8.91834783 C32.3126087,9.04304348 32.0248696,9.23765217 31.9017391,9.28956522 C31.7587826,9.15913043 31.4715652,8.91417391 31.0766087,8.58521739 L30.6915652,8.26513043 C30.5431304,8.14121739 30.3341739,7.97321739 30.1768696,7.85347826 C30.1609565,7.81747826 30.2084348,7.75408696 30.2517391,7.74991304 L30.3876522,7.84043478 C30.5603478,7.95573913 30.5992174,7.97086957 30.8971304,7.61321739 L31.9426957,6.3573913 C32.2403478,5.99947826 32.2184348,5.964 32.0796522,5.80852174 L32.0796522,5.80852174 Z M29.0225217,6.51991304 L29.3024348,4.53652174 C29.3465217,4.2206087 29.3436522,4.14730435 29.2106087,4.02782609 L29.1307826,3.95504348 C29.120087,3.91304348 29.1602609,3.84495652 29.2048696,3.8546087 C29.3478261,3.94956522 29.5082609,4.04947826 29.655913,4.1366087 C29.8257391,4.23730435 29.9566957,4.30982609 30.1614783,4.42173913 C30.1823478,4.46478261 30.1502609,4.5273913 30.1004348,4.53391304 L29.9926957,4.50052174 C29.898,4.47026087 29.8567826,4.47130435 29.8390435,4.50156522 C29.8186957,4.53573913 29.7996522,4.63643478 29.7266087,5.11382609 L29.6006087,5.94834783 C29.568,6.1586087 29.5382609,6.44217391 29.5246957,6.55147826 C30.0106957,6.19591304 30.5462609,5.80826087 31.0507826,5.41252174 C31.2007826,5.29721739 31.2075652,5.26017391 31.1097391,5.16652174 L31.0158261,5.07521739 C31.0069565,5.02930435 31.0466087,4.97113043 31.088087,4.96878261 C31.2386087,5.06817391 31.3648696,5.14773913 31.485913,5.21947826 C31.6223478,5.29982609 31.7491304,5.37 31.8597391,5.42634783 C31.8785217,5.46313043 31.8391304,5.52130435 31.802087,5.54034783 L31.6966957,5.50356522 C31.5983478,5.47095652 31.4994783,5.44826087 31.3703478,5.51973913 C31.1569565,5.63869565 30.8973913,5.82730435 30.5013913,6.10852174 L30.0122609,6.45208696 C29.6572174,6.70669565 29.217913,7.044 29.0394783,7.19895652 C29.0253913,7.20573913 28.9906957,7.19530435 28.964087,7.17965217 C28.9377391,7.164 28.9158261,7.14078261 28.9035652,7.11834783 C28.9476522,6.94017391 28.9966957,6.71921739 29.0225217,6.51991304 L29.0225217,6.51991304 Z M27.7891304,3.28747826 C27.9631304,3.372 28.1433913,3.45365217 28.3288696,3.53347826 C28.5062609,3.60965217 28.689913,3.68347826 28.8709565,3.75052174 C28.8962609,3.78052174 28.8691304,3.85486957 28.8286957,3.87104348 L28.7347826,3.84495652 C28.5346957,3.78808696 28.4932174,3.78443478 28.3093043,4.21226087 L27.6654783,5.71382609 C27.482087,6.14165217 27.5131304,6.16930435 27.6923478,6.27495652 L27.776087,6.32504348 C27.792,6.36547826 27.7567826,6.43643478 27.7176522,6.43878261 C27.5436522,6.35452174 27.363913,6.2726087 27.186,6.19643478 C27.0083478,6.12026087 26.8171304,6.04278261 26.6358261,5.97469565 C26.6107826,5.94469565 26.6376522,5.87034783 26.678087,5.85417391 L26.7722609,5.88026087 C26.972087,5.9373913 27.0138261,5.94078261 27.1972174,5.51295652 L27.8413043,4.0113913 C28.0249565,3.58356522 27.993913,3.55591304 27.8144348,3.45052174 L27.7309565,3.40017391 C27.7147826,3.35973913 27.75,3.28878261 27.7891304,3.28747826 L27.7891304,3.28747826 Z M24.234,4.092 L24.5063478,3.0873913 C24.596087,2.7566087 24.6187826,2.69034783 24.507913,2.52782609 C24.471913,2.47721739 24.3623478,2.41095652 24.3062609,2.38226087 L24.246,2.35252174 C24.2233043,2.31886957 24.2506957,2.23513043 24.2966087,2.23304348 C24.4528696,2.29356522 24.6873913,2.35278261 24.7933043,2.38121739 C24.8825217,2.40547826 24.9850435,2.42869565 25.0893913,2.44930435 C25.1118261,2.65095652 25.4287826,3.31043478 25.5336522,3.51182609 L25.8331304,4.08469565 C25.9586087,4.32808696 26.2306957,4.88452174 26.2664348,4.92130435 C26.2826087,4.91191304 26.2883478,4.89078261 26.3066087,4.82295652 L26.5306957,3.99626087 C26.6173043,3.67852174 26.7187826,3.28747826 26.6770435,3.13930435 C26.6561739,3.06547826 26.5951304,3.02165217 26.493913,2.97573913 L26.3997391,2.93686957 C26.3697391,2.89643478 26.3958261,2.8173913 26.4414783,2.81504348 C26.6045217,2.86826087 26.7602609,2.91521739 26.9256522,2.96008696 C27.108,3.0093913 27.2191304,3.03521739 27.3743478,3.06913043 C27.4025217,3.09965217 27.3913043,3.174 27.3493043,3.19434783 L27.246,3.18913043 C27.162,3.18 27.0853043,3.1773913 27.0373043,3.23713043 C26.9423478,3.35269565 26.841913,3.72130435 26.7513913,4.05626087 L26.4761739,5.06947826 C26.442,5.19652174 26.3003478,5.718 26.2867826,5.81895652 C26.240087,5.85626087 26.1761739,5.85730435 26.1263478,5.83930435 C26.0827826,5.73182609 25.9987826,5.55417391 25.7877391,5.124 L25.1029565,3.72286957 C24.9114783,3.3386087 24.819913,3.1406087 24.7648696,3.0573913 C24.752087,3.054 24.7393043,3.10069565 24.6787826,3.32530435 L24.4541739,4.152 C24.3678261,4.47 24.2663478,4.86104348 24.303913,5.00765217 C24.3247826,5.08173913 24.3897391,5.1266087 24.4912174,5.17252174 L24.5812174,5.2106087 C24.6114783,5.25052174 24.5851304,5.33008696 24.5392174,5.33086957 C24.3847826,5.28 24.2206957,5.23095652 24.0594783,5.1873913 C23.8813043,5.13886957 23.7657391,5.11226087 23.6149565,5.08043478 C23.5867826,5.04991304 23.598,4.97556522 23.64,4.95495652 L23.7391304,4.9593913 C23.8231304,4.96826087 23.904,4.97217391 23.952,4.91243478 C24.0427826,4.79582609 24.1429565,4.42721739 24.234,4.092 L24.234,4.092 Z M20.8043478,1.94921739 C20.9791304,1.97008696 21.176087,1.98782609 21.3688696,2.00113043 C21.566087,2.01495652 21.7638261,2.02408696 21.9571304,2.02930435 C21.9910435,2.04913043 21.99,2.124 21.9573913,2.15269565 L21.860087,2.15895652 C21.651913,2.17565217 21.6114783,2.18608696 21.5796522,2.65043478 L21.5102609,3.65426087 C21.4685217,4.25895652 21.6174783,4.77991304 22.2266087,4.82191304 C22.8005217,4.86182609 23.0673913,4.44417391 23.1135652,3.77791304 L23.1511304,3.23008696 C23.1738261,2.9013913 23.1975652,2.49365217 23.1273913,2.36113043 C23.0924348,2.29252174 23.0246087,2.25704348 22.9163478,2.232 L22.8297391,2.21269565 C22.7921739,2.17930435 22.802087,2.10078261 22.8466957,2.09008696 C22.9951304,2.10913043 23.1613043,2.12504348 23.3321739,2.13652174 C23.5166087,2.14930435 23.6350435,2.15321739 23.7978261,2.15634783 C23.8312174,2.1806087 23.8351304,2.25130435 23.798087,2.27947826 L23.7002609,2.29486957 C23.6154783,2.3066087 23.5356522,2.31886957 23.5001739,2.38669565 C23.4294783,2.514 23.4028696,2.89956522 23.3788696,3.24573913 L23.3431304,3.76721739 C23.3154783,4.16634783 23.2286087,4.53 22.983913,4.75982609 C22.7389565,4.98965217 22.4047826,5.04991304 22.1021739,5.02904348 C21.6905217,5.00086957 21.4069565,4.89313043 21.2188696,4.68652174 C21.0346957,4.48434783 20.9637391,4.17104348 20.9942609,3.7286087 L21.0709565,2.61521739 C21.1030435,2.15086957 21.0646957,2.13521739 20.8606957,2.09008696 L20.7871304,2.07182609 C20.7586957,2.03895652 20.768087,1.96486957 20.8043478,1.94921739 L20.8043478,1.94921739 Z M16.2331304,2.45191304 C16.2391304,2.43756522 16.2558261,2.43 16.2774783,2.42582609 C16.2946957,2.42269565 16.3126957,2.42373913 16.323913,2.43495652 C16.3653913,2.53878261 16.4266957,2.532 16.7204348,2.47747826 L18.4826087,2.14930435 C18.6941739,2.10991304 18.7565217,2.08486957 18.789913,1.97582609 C18.8055652,1.96408696 18.8212174,1.95208696 18.8384348,1.94921739 C18.8642609,1.94426087 18.8874783,1.94895652 18.8986957,1.96017391 C18.8885217,2.1453913 18.9229565,2.52313043 18.9615652,2.65878261 C18.9464348,2.69765217 18.8746957,2.71982609 18.8303478,2.69686957 C18.7113913,2.37052174 18.614087,2.30347826 18.1518261,2.38956522 L17.9058261,2.43547826 C17.7933913,2.45634783 17.7907826,2.46573913 17.8244348,2.64704348 L18.171913,4.51304348 C18.2569565,4.97086957 18.2984348,4.97634783 18.5053043,4.96043478 L18.6641739,4.94869565 C18.699913,4.97347826 18.710087,5.05173913 18.6787826,5.07547826 C18.4267826,5.11356522 18.2313913,5.1453913 18.0414783,5.1806087 C17.8515652,5.21608696 17.6491304,5.25808696 17.3744348,5.31834783 C17.3366087,5.30765217 17.3162609,5.22208696 17.3423478,5.19469565 L17.52,5.1393913 C17.7195652,5.08408696 17.756087,5.064 17.6707826,4.60617391 L17.3235652,2.74043478 C17.2896522,2.55913043 17.283913,2.55130435 17.1714783,2.57217391 L16.9296522,2.61704348 C16.5323478,2.69113043 16.4246087,2.76026087 16.329913,3.13982609 C16.3043478,3.1713913 16.2114783,3.17556522 16.185913,3.1353913 C16.2161739,2.8886087 16.2310435,2.60869565 16.2331304,2.45191304 L16.2331304,2.45191304 Z M15.0070435,2.90269565 C15.2230435,2.8286087 15.398087,2.82443478 15.6062609,2.79521739 C15.6832174,2.87086957 15.8186087,3.13095652 15.8853913,3.32634783 C15.8773043,3.37095652 15.804,3.40043478 15.7565217,3.38426087 C15.6203478,3.18965217 15.3798261,2.96086957 15.0266087,3.0813913 C14.694,3.19513043 14.6306087,3.45834783 14.7062609,3.67852174 C14.7657391,3.85304348 14.9501739,3.99886957 15.2741739,4.05052174 L15.5788696,4.09956522 C15.8973913,4.14834783 16.2845217,4.30382609 16.428,4.72330435 C16.59,5.19730435 16.3434783,5.65747826 15.7411304,5.86356522 C15.3586957,5.99426087 15.099913,5.9433913 15,5.922 C14.8951304,5.86043478 14.7430435,5.592 14.6590435,5.33295652 C14.6697391,5.28286957 14.7391304,5.25469565 14.7821739,5.27243478 C14.9295652,5.45869565 15.306,5.82678261 15.7132174,5.68747826 C16.0291304,5.57947826 16.1423478,5.32721739 16.0557391,5.07365217 C15.9748696,4.83678261 15.7972174,4.68391304 15.4257391,4.61582609 L15.2131304,4.57747826 C14.8416522,4.5093913 14.4806087,4.34973913 14.3527826,3.97565217 C14.2121739,3.56426087 14.4002609,3.11008696 15.0070435,2.90269565 L15.0070435,2.90269565 Z M12.6067826,3.94173913 C12.7862609,3.86947826 12.968087,3.79121739 13.1517391,3.70721739 C13.3275652,3.62686957 13.5057391,3.54052174 13.677913,3.45182609 C13.7170435,3.45313043 13.754087,3.52330435 13.7386957,3.564 L13.6565217,3.61617391 C13.4796522,3.726 13.4491304,3.75469565 13.6426957,4.17834783 L14.3225217,5.66504348 C14.516087,6.08843478 14.5575652,6.084 14.7563478,6.02217391 L14.8497391,5.994 C14.8904348,6.00913043 14.9193913,6.08269565 14.8948696,6.11347826 C14.7151304,6.186 14.5335652,6.26426087 14.3577391,6.34434783 C14.181913,6.42495652 13.995913,6.51495652 13.8237391,6.60313043 C13.7843478,6.60182609 13.7475652,6.53165217 13.7626957,6.49095652 L13.8451304,6.43878261 C14.022,6.32895652 14.0525217,6.30026087 13.8586957,5.87686957 L13.1791304,4.39017391 C12.9855652,3.96652174 12.944087,3.97095652 12.7453043,4.03278261 L12.651913,4.06095652 C12.6109565,4.04582609 12.5822609,3.97226087 12.6067826,3.94173913 L12.6067826,3.94173913 Z M9.93834783,5.37182609 C9.95321739,5.36243478 9.97043478,5.35669565 9.98504348,5.36347826 C10.0617391,5.44513043 10.1162609,5.41617391 10.3698261,5.25808696 L11.8914783,4.30982609 C12.0743478,4.19582609 12.1233913,4.14965217 12.1145217,4.03617391 C12.1249565,4.01921739 12.1351304,4.00252174 12.1502609,3.9933913 C12.1724348,3.97930435 12.1956522,3.97513043 12.2102609,3.98165217 C12.2681739,4.158 12.4382609,4.49713043 12.5238261,4.60956522 C12.5238261,4.65104348 12.4651304,4.698 12.4153043,4.69278261 C12.1854783,4.43191304 12.0704348,4.40556522 11.6713043,4.65417391 L11.4586957,4.78669565 C11.3616522,4.84695652 11.3626957,4.85686957 11.4602609,5.01365217 L12.4646087,6.62504348 C12.7111304,7.02 12.7515652,7.01034783 12.9383478,6.91982609 L13.0818261,6.85121739 C13.1243478,6.86086957 13.1624348,6.93026087 13.1418261,6.96365217 C12.9208696,7.09121739 12.7507826,7.19191304 12.5866957,7.29443478 C12.4226087,7.39643478 12.2496522,7.50965217 12.0156522,7.66591304 C11.9765217,7.66956522 11.9261739,7.59730435 11.9405217,7.56234783 L12.0858261,7.446 C12.2517391,7.32182609 12.2783478,7.28973913 12.0318261,6.89452174 L11.0274783,5.28313043 C10.929913,5.12634783 10.9215652,5.1213913 10.8247826,5.18165217 L10.6158261,5.31182609 C10.2725217,5.526 10.1973913,5.62956522 10.2477391,6.01773913 C10.2357391,6.0566087 10.1504348,6.09391304 10.112087,6.066 C10.05,5.82521739 9.96182609,5.55913043 9.90678261,5.41226087 C9.90730435,5.39634783 9.91956522,5.38330435 9.93834783,5.37182609 L9.93834783,5.37182609 Z M7.24773913,7.8386087 C7.38417391,7.74052174 7.56156522,7.57617391 7.64347826,7.50313043 C7.71234783,7.44156522 7.78826087,7.36826087 7.86104348,7.29026087 C8.0426087,7.38182609 8.76886957,7.476 8.99478261,7.49817391 L9.63886957,7.55973913 C9.91121739,7.58791304 10.5263478,7.66356522 10.5764348,7.65391304 C10.5777391,7.6353913 10.5631304,7.61895652 10.5161739,7.56652174 L9.94565217,6.92686957 C9.72626087,6.68086957 9.45391304,6.38217391 9.30704348,6.33626087 C9.23373913,6.31330435 9.16356522,6.34069565 9.06991304,6.40043478 L8.98565217,6.45808696 C8.93556522,6.46147826 8.8833913,6.39626087 8.9073913,6.35817391 C9.04121739,6.25043478 9.1653913,6.14556522 9.29321739,6.03156522 C9.43434783,5.90582609 9.51678261,5.82626087 9.62895652,5.71330435 C9.66991304,5.70652174 9.72626087,5.75608696 9.72052174,5.80252174 L9.65947826,5.88652174 C9.606,5.95173913 9.56191304,6.01486957 9.58591304,6.08765217 C9.63078261,6.23034783 9.88513043,6.51573913 10.1162609,6.77478261 L10.8153913,7.55869565 C10.9033043,7.65704348 11.2630435,8.06034783 11.3402609,8.12713043 C11.3462609,8.1866087 11.312087,8.24086957 11.2698261,8.27243478 C11.1558261,8.25052174 10.9612174,8.22365217 10.4851304,8.16547826 L8.93634783,7.97426087 C8.50982609,7.92521739 8.29356522,7.89417391 8.19391304,7.89469565 C8.184,7.90330435 8.21634783,7.93956522 8.37130435,8.11330435 L8.94182609,8.75295652 C9.16121739,8.99895652 9.43382609,9.29791304 9.57730435,9.34643478 C9.6506087,9.36913043 9.72391304,9.33913043 9.81756522,9.27913043 L9.89869565,9.2246087 C9.94852174,9.22147826 10.0009565,9.28669565 9.97695652,9.32556522 C9.84965217,9.42730435 9.71869565,9.53817391 9.59426087,9.64930435 C9.45652174,9.77217391 9.37069565,9.85434783 9.26191304,9.9633913 C9.22095652,9.97043478 9.1646087,9.92034783 9.17034783,9.87417391 L9.228,9.79330435 C9.28147826,9.72782609 9.32895652,9.66208696 9.30495652,9.58930435 C9.25695652,9.44947826 9.00234783,9.16408696 8.77121739,8.90504348 L8.07782609,8.12765217 C7.84956522,7.872 7.806,7.81643478 7.60982609,7.8206087 C7.54747826,7.82347826 7.43217391,7.87904348 7.3773913,7.91008696 L7.31947826,7.94426087 C7.27878261,7.94504348 7.22373913,7.87643478 7.24773913,7.8386087 L7.24773913,7.8386087 Z M5.87478261,9.59478261 L6.39234783,8.93426087 C6.56582609,8.71278261 6.71973913,8.50956522 6.74791304,8.45921739 C6.81756522,8.49130435 7.10713043,8.68486957 7.272,8.7806087 C7.28895652,8.81608696 7.24173913,8.89069565 7.19921739,8.90217391 C6.95530435,8.80017391 6.828,8.78426087 6.71373913,8.87347826 C6.62713043,8.934 6.53895652,9.03234783 6.46565217,9.12547826 L6.28408696,9.3573913 C6.16747826,9.50608696 6.17452174,9.51156522 6.37147826,9.66626087 L6.95608696,10.1243478 C7.04608696,10.1947826 7.05234783,10.194 7.11469565,10.1144348 L7.2446087,9.94852174 C7.48069565,9.64721739 7.52321739,9.58591304 7.39356522,9.44504348 L7.29469565,9.32895652 C7.29234783,9.282 7.34373913,9.21626087 7.38495652,9.22147826 C7.47573913,9.29817391 7.59469565,9.40252174 7.72278261,9.50295652 C7.85426087,9.60573913 7.98078261,9.69365217 8.094,9.7766087 C8.10469565,9.8126087 8.05330435,9.87834783 8.01078261,9.88982609 L7.85347826,9.80582609 C7.6893913,9.71608696 7.63617391,9.76930435 7.40034783,10.0703478 L7.27043478,10.2362609 C7.20782609,10.316087 7.212,10.3246957 7.2986087,10.3925217 L7.73791304,10.7368696 C7.91426087,10.8748696 8.04417391,10.9656522 8.14382609,10.9601739 C8.22469565,10.9565217 8.29852174,10.9192174 8.52626087,10.6286087 C8.8773913,10.1947826 8.83669565,10.040087 8.65147826,9.69965217 C8.65173913,9.64930435 8.70808696,9.59869565 8.75895652,9.60495652 C8.88782609,9.73982609 9.09130435,10.0218261 9.1466087,10.1433913 C9.02034783,10.29 8.78373913,10.5850435 8.46678261,10.9896522 L8.15765217,11.384087 C8.03843478,11.5364348 7.87643478,11.7498261 7.7613913,11.9110435 C7.72591304,11.928 7.66095652,11.8826087 7.65573913,11.8393043 L7.74208696,11.7005217 C7.85217391,11.5244348 7.86626087,11.4850435 7.49947826,11.1978261 L6.21286957,10.1895652 C5.84608696,9.90208696 5.8113913,9.92504348 5.65982609,10.0687826 L5.60947826,10.1186087 C5.56617391,10.1238261 5.50669565,10.0713913 5.51452174,10.0330435 C5.6246087,9.90704348 5.75556522,9.74713043 5.87478261,9.59478261 L5.87478261,9.59478261 Z M4.13086957,12.4066957 C4.22765217,12.234 4.29730435,12.102 4.40373913,11.8948696 C4.446,11.8732174 4.5093913,11.904 4.51669565,11.9533043 L4.48591304,12.062087 C4.45773913,12.1573043 4.45982609,12.1985217 4.49034783,12.2157391 C4.52478261,12.2350435 4.62626087,12.2517391 5.10521739,12.3143478 L5.94182609,12.422087 C6.15286957,12.4502609 6.43695652,12.4737391 6.54652174,12.4849565 C6.18026087,12.0067826 5.78113043,11.4798261 5.37443478,10.983913 C5.25573913,10.8367826 5.21869565,10.8310435 5.1273913,10.9306957 L5.03791304,11.0269565 C4.99226087,11.0363478 4.93330435,10.998 4.93121739,10.956 C5.02721739,10.8033913 5.10417391,10.6753043 5.17330435,10.5526957 C5.25078261,10.4149565 5.31782609,10.2863478 5.37052174,10.1754783 C5.40704348,10.1556522 5.466,10.1937391 5.48582609,10.2302609 L5.45113043,10.3366957 C5.42086957,10.4355652 5.40026087,10.5349565 5.4746087,10.6625217 C5.59826087,10.8730435 5.79234783,11.1281739 6.08217391,11.5181739 L6.43643478,11.9997391 C6.69886957,12.3487826 7.04556522,12.7807826 7.20417391,12.9555652 C7.21147826,12.969913 7.20182609,13.0048696 7.18669565,13.0314783 C7.17182609,13.0583478 7.14886957,13.0810435 7.12669565,13.0933043 C6.94773913,13.0533913 6.72573913,13.0090435 6.52617391,12.9873913 L4.53704348,12.7510435 C4.22008696,12.714 4.14730435,12.7184348 4.03043478,12.854087 L3.95973913,12.9354783 C3.91773913,12.9472174 3.84886957,12.9083478 3.85878261,12.8634783 C3.9506087,12.7184348 4.04686957,12.555913 4.13086957,12.4066957 L4.13086957,12.4066957 Z M2.55495652,17.8948696 C2.55,17.7378261 2.39608696,17.5653913 2.3973913,17.5567826 C2.40313043,17.522087 2.41982609,17.5025217 2.44434783,17.4886957 C2.65095652,17.4516522 2.86408696,17.4294783 3.07069565,17.3924348 L4.99069565,17.07 C5.29695652,17.0188696 5.3313913,17.001913 5.40678261,16.7890435 C5.406,16.7877391 5.40443478,16.7869565 5.40365217,16.7856522 L5.42426087,16.689913 C5.46965217,16.4869565 5.47069565,16.4452174 5.03269565,16.2871304 L3.52043478,15.7408696 C3.12365217,15.5973913 3.07252174,15.5835652 2.97782609,15.7687826 L2.93817391,15.8527826 C2.90713043,15.8741739 2.83252174,15.8473043 2.82391304,15.8068696 C2.9066087,15.5003478 3.01356522,15.1653913 3.15991304,14.7602609 C3.30182609,14.367913 3.43617391,14.0989565 3.65269565,13.836 C4.01347826,13.406087 4.57852174,13.2127826 5.19417391,13.4353043 C5.65278261,13.6009565 6.04173913,13.9982609 6.11686957,14.6047826 C6.15965217,14.9517391 6.08086957,15.3250435 5.94495652,15.7012174 C5.85391304,15.9532174 5.75895652,16.1384348 5.70365217,16.2913043 C5.65565217,16.4243478 5.60347826,16.5803478 5.55365217,16.7371304 C5.55443478,16.7384348 5.55678261,16.7394783 5.55756522,16.7410435 C5.51947826,16.9173913 5.48843478,17.0770435 5.45086957,17.3021739 C5.42008696,17.4886957 5.39713043,17.6809565 5.376,17.8333043 C5.3486087,17.8643478 5.26982609,17.856 5.24817391,17.8257391 L5.25104348,17.7281739 C5.25965217,17.5693043 5.23591304,17.5518261 5.04,17.5771304 L4.41678261,17.6827826 C4.29234783,17.7067826 4.29026087,17.7198261 4.27017391,17.8413913 L4.17417391,18.417913 C4.15565217,18.5303478 4.15617391,18.5261739 4.26678261,18.5846087 L4.75747826,18.8488696 C4.99878261,18.978 5.01469565,18.9626087 5.06295652,18.806087 L5.10547826,18.684 C5.14095652,18.6584348 5.21817391,18.675913 5.22991304,18.7132174 C5.19808696,18.8506957 5.17434783,18.993913 5.14043478,19.1707826 C5.11669565,19.3137391 5.09869565,19.4491304 5.082,19.6022609 C5.0553913,19.6288696 4.98965217,19.6223478 4.95573913,19.5855652 L4.95573913,19.4517391 C4.95913043,19.3231304 4.92808696,19.2691304 4.79582609,19.1801739 C4.69173913,19.1097391 4.52113043,19.010087 4.30226087,18.8801739 L2.85782609,18.0297391 C2.72843478,17.9504348 2.63086957,17.894087 2.55495652,17.8948696 L2.55495652,17.8948696 Z M3.97043478,22.2026087 C3.99469565,22.4911304 3.78782609,22.7394783 3.49591304,22.764 C3.20426087,22.788 2.96243478,22.5774783 2.93843478,22.2889565 C2.91443478,22.0006957 3.11765217,21.7528696 3.40956522,21.7283478 C3.70121739,21.7038261 3.94643478,21.9143478 3.97043478,22.2026087 L3.97043478,22.2026087 Z M2.99686957,26.3527826 C2.70182609,25.4045217 3.19930435,24.6513913 3.94591304,24.4189565 C4.80208696,24.1526087 5.62878261,24.5765217 5.90295652,25.4574783 C6.20452174,26.4266087 5.66347826,27.1426957 4.89991304,27.3803478 C4.07321739,27.6373043 3.2606087,27.200087 2.99686957,26.3527826 L2.99686957,26.3527826 Z M5.43391304,29.3726087 L5.57086957,29.2646087 C5.718,29.1464348 5.69452174,29.0796522 5.52313043,28.7381739 L5.40678261,28.5065217 C5.3613913,28.4162609 5.35173913,28.4165217 5.25365217,28.4655652 L4.704,28.7415652 C4.28791304,28.9505217 4.29391304,28.9914783 4.37086957,29.1837391 L4.434,29.3585217 C4.42043478,29.3997391 4.34791304,29.4313043 4.31634783,29.4073043 C4.19791304,29.1521739 4.1133913,28.9734783 4.02652174,28.8010435 C3.93991304,28.6283478 3.84730435,28.4538261 3.74895652,28.2774783 C3.74869565,28.238087 3.81730435,28.1989565 3.85878261,28.2125217 L3.91382609,28.2928696 C4.02991304,28.4655652 4.0593913,28.4950435 4.47547826,28.2863478 L5.93556522,27.5530435 C6.35165217,27.3443478 6.34565217,27.3031304 6.28043478,27.1046087 L6.26269565,27.0498261 C6.27652174,27.0086087 6.34904348,26.9770435 6.38034783,27.0005217 C6.44165217,27.141913 6.52643478,27.3203478 6.61304348,27.4933043 L6.98530435,28.2349565 C7.11156522,28.4861739 7.22582609,28.704 7.27513043,28.7825217 C7.18878261,28.8258261 6.89426087,28.9734783 6.71373913,29.073913 C6.67434783,29.073913 6.63104348,29.0073913 6.63521739,28.9562609 C6.84286957,28.8028696 6.92530435,28.6828696 6.88956522,28.514087 C6.86373913,28.3943478 6.8186087,28.2941739 6.75547826,28.1684348 L6.65504348,27.9683478 C6.57234783,27.8034783 6.56452174,27.8076522 6.3446087,27.918 L5.64208696,28.2704348 C5.544,28.32 5.53826087,28.3275652 5.5833913,28.4178261 L5.69973913,28.6494783 C5.87113043,28.9909565 5.91052174,29.0496522 6.09313043,29.0024348 L6.24234783,28.9666957 C6.28147826,28.9766087 6.31904348,29.0509565 6.2973913,29.0856522 C6.19356522,29.1328696 6.04434783,29.198087 5.89904348,29.2708696 C5.754,29.3436522 5.61652174,29.4224348 5.49678261,29.4884348 C5.45556522,29.4845217 5.418,29.409913 5.43391304,29.3726087 L5.43391304,29.3726087 Z M7.68834783,33.8874783 L7.74026087,33.9701739 C7.7366087,34.0134783 7.67347826,34.0609565 7.63721739,34.0453043 C7.51956522,33.891913 7.39565217,33.7377391 7.27095652,33.590087 C7.14078261,33.4353913 7.01008696,33.2872174 6.87886957,33.1450435 C6.86947826,33.1066957 6.9273913,33.0524348 6.97069565,33.0563478 L7.04295652,33.1218261 C7.19608696,33.2626957 7.23156522,33.2843478 7.58765217,32.9843478 L8.08147826,32.5682609 C8.17226087,32.4918261 8.17069565,32.4761739 8.02617391,32.3047826 L7.36382609,31.5185217 C7.21956522,31.3473913 7.20443478,31.3426957 7.11365217,31.4191304 L6.61982609,31.8352174 C6.26373913,32.1352174 6.27913043,32.174087 6.39547826,32.346 L6.46695652,32.4581739 C6.46304348,32.5014783 6.39991304,32.5492174 6.36391304,32.5335652 C6.22330435,32.3533043 6.0993913,32.1993913 5.97469565,32.0512174 C5.85026087,31.9035652 5.71956522,31.7551304 5.60530435,31.6333043 C5.59617391,31.5949565 5.65356522,31.5406957 5.69686957,31.5443478 L5.74330435,31.5858261 C5.89982609,31.7238261 5.93530435,31.7454783 6.29165217,31.4457391 L7.54147826,30.3928696 C7.89730435,30.0926087 7.88191304,30.054 7.76921739,29.8792174 L7.71704348,29.7967826 C7.71391304,29.7589565 7.78408696,29.7057391 7.82008696,29.7216522 C7.938,29.8747826 8.06765217,30.0357391 8.19208696,30.1833913 C8.31652174,30.3310435 8.44721739,30.4797391 8.5646087,30.6049565 C8.57373913,30.6433043 8.50930435,30.7030435 8.47252174,30.6936522 L8.41434783,30.6453913 C8.26121739,30.5042609 8.22573913,30.4826087 7.86965217,30.7826087 L7.46321739,31.1251304 C7.36904348,31.2041739 7.37086957,31.220087 7.51513043,31.3912174 L8.17747826,32.1774783 C8.32173913,32.3488696 8.33686957,32.3533043 8.43104348,32.274 L8.83747826,31.9314783 C9.19356522,31.6314783 9.17843478,31.5926087 9.06547826,31.4178261 L9.01330435,31.3353913 C9.01017391,31.2978261 9.08034783,31.2443478 9.11634783,31.26 C9.23973913,31.4201739 9.36365217,31.5743478 9.48834783,31.7222609 C9.61278261,31.869913 9.74347826,32.018087 9.86347826,32.1469565 C9.8726087,32.1853043 9.80843478,32.2450435 9.77165217,32.2356522 L9.7106087,32.1837391 C9.55747826,32.0428696 9.522,32.0212174 9.16591304,32.3209565 L7.91608696,33.374087 C7.56,33.674087 7.5753913,33.7126957 7.68834783,33.8874783 L7.68834783,33.8874783 Z M9.048,35.216087 L8.66113043,34.8973043 C8.51191304,34.7746957 8.30243478,34.6074783 8.14408696,34.4885217 C8.12817391,34.4525217 8.17513043,34.3886087 8.21843478,34.3846957 L8.35486957,34.4744348 C8.52834783,34.5889565 8.56721739,34.6035652 8.86356522,34.244087 L9.90286957,32.9827826 C10.1992174,32.6233043 10.1770435,32.5878261 10.0372174,32.4328696 L9.98869565,32.3812174 C9.98426087,32.337913 10.038,32.2797391 10.0763478,32.2883478 C10.1997391,32.4015652 10.3562609,32.5364348 10.5054783,32.6590435 L11.1532174,33.1927826 C11.3702609,33.3717391 11.5698261,33.5303478 11.6193913,33.560087 C11.5854783,33.6286957 11.3851304,33.9135652 11.2852174,34.076087 C11.2494783,34.092 11.175913,34.0429565 11.1657391,34.0001739 C11.2734783,33.7588696 11.2925217,33.632087 11.2061739,33.5157391 C11.1477391,33.4275652 11.0517391,33.3370435 10.9601739,33.2613913 L10.7329565,33.0743478 C10.5868696,32.954087 10.5813913,32.9611304 10.4222609,33.1541739 L9.94982609,33.7273043 C9.87730435,33.8154783 9.87782609,33.8217391 9.95582609,33.885913 L10.1186087,34.02 C10.4136522,34.2633913 10.4741739,34.3074783 10.6181739,34.1809565 L10.7368696,34.0852174 C10.7835652,34.083913 10.8477391,34.1368696 10.8425217,34.1775652 C10.7637391,34.266 10.6562609,34.3828696 10.5529565,34.5083478 C10.4467826,34.6372174 10.3557391,34.7616522 10.2696522,34.8735652 C10.2331304,34.8832174 10.1686957,34.8302609 10.1582609,34.7874783 L10.2464348,34.6322609 C10.340087,34.4702609 10.287913,34.416 9.99286957,34.1726087 L9.83008696,34.0385217 C9.75208696,33.9743478 9.74321739,33.9782609 9.67330435,34.0630435 L9.31852174,34.494 C9.17582609,34.6669565 9.08191304,34.7945217 9.08556522,34.8941739 C9.08686957,34.9750435 9.12234783,35.0496522 9.40721739,35.2844348 C9.83217391,35.6462609 9.98791304,35.6092174 10.3330435,35.4323478 C10.3831304,35.4336522 10.4324348,35.4915652 10.4246087,35.541913 C10.2871304,35.667913 9.99991304,35.8638261 9.87704348,35.9165217 C9.73330435,35.7868696 9.44478261,35.5429565 9.048,35.216087 L9.048,35.216087 Z M13.046087,35.1255652 L12.6693913,37.0361739 C12.6091304,37.3416522 12.6127826,37.3789565 12.7867826,37.5258261 L12.8371304,37.5701739 C12.8522609,37.6145217 12.8146957,37.6789565 12.7771304,37.6826087 C12.6255652,37.5845217 12.4873043,37.4992174 12.2895652,37.3846957 C12.126,37.2897391 11.9543478,37.2005217 11.8192174,37.1269565 C11.7996522,37.0904348 11.8356522,37.0197391 11.8716522,37.010087 L11.961913,37.0473913 C12.1077391,37.1115652 12.1322609,37.0951304 12.1776522,36.9031304 L12.2986957,36.2825217 C12.3203478,36.1575652 12.3091304,36.1510435 12.2024348,36.0894783 L11.6968696,35.7962609 C11.598,35.7388696 11.601913,35.7409565 11.5082609,35.8236522 L11.0877391,36.1896522 C10.8816522,36.3696522 10.8902609,36.39 11.019913,36.4904348 L11.1190435,36.5733913 C11.1302609,36.6153913 11.0866957,36.6816522 11.0475652,36.6793043 C10.9301739,36.6013043 10.8046957,36.5282609 10.6510435,36.434087 C10.5255652,36.3615652 10.4055652,36.2968696 10.268087,36.2272174 C10.2524348,36.1927826 10.281913,36.1335652 10.3283478,36.1147826 L10.4533043,36.162 C10.5725217,36.2107826 10.634087,36.2006087 10.764,36.1082609 C10.8667826,36.036 11.0204348,35.9115652 11.2192174,35.7526957 L12.5251304,34.7013913 C12.6451304,34.6085217 12.7322609,34.5373043 12.7583478,34.4658261 C12.9067826,34.5161739 13.1225217,34.4332174 13.130087,34.437913 C13.1606087,34.4553913 13.1731304,34.4778261 13.1773043,34.5057391 C13.1386957,34.7118261 13.0844348,34.9192174 13.046087,35.1255652 L13.046087,35.1255652 Z M15.207913,38.6282609 C15.0388696,38.553913 14.6877391,38.4143478 14.2286087,38.2377391 L13.802087,38.0736522 C13.5931304,37.9935652 13.3865217,37.9186957 13.2112174,37.8607826 C13.1846087,37.8318261 13.203913,37.7452174 13.2487826,37.7386957 L13.3794783,37.7655652 C13.5816522,37.8148696 13.6233913,37.8169565 13.7872174,37.3904348 L14.3736522,35.8651304 C14.5377391,35.4388696 14.5053913,35.4122609 14.3238261,35.3094783 L14.2153043,35.2489565 C14.1944348,35.2173913 14.226,35.1352174 14.2693043,35.1326087 C14.4709565,35.2197391 14.6538261,35.2946087 14.8426957,35.3671304 C15.0229565,35.4365217 15.2089565,35.5035652 15.3926087,35.5651304 C15.4231304,35.5956522 15.3957391,35.6793913 15.3550435,35.6872174 L15.2585217,35.6689565 C15.0547826,35.6235652 15.0133043,35.6217391 14.8492174,36.0482609 L14.295913,37.4872174 C14.2171304,37.692 14.1686087,37.8430435 14.2033043,37.9361739 C14.2304348,38.0126087 14.2833913,38.0705217 14.6115652,38.1967826 C15.0665217,38.3718261 15.140087,38.3762609 15.4909565,38.0266957 C15.5397391,38.0217391 15.6007826,38.0593043 15.6086087,38.1 C15.5097391,38.2596522 15.2994783,38.5366957 15.207913,38.6282609 L15.207913,38.6282609 Z M18.5373913,37.0497391 C18.5081739,37.0789565 18.4335652,37.0703478 18.4017391,37.0314783 C18.4241739,36.6847826 18.3618261,36.5846087 17.904,36.4776522 L17.660087,36.4205217 C17.5489565,36.3946957 17.5426957,36.4022609 17.5006957,36.582 L17.0689565,38.4305217 C16.9630435,38.8841739 16.9987826,38.906087 17.1946957,38.9741739 L17.3446957,39.0273913 C17.3676522,39.0644348 17.3454783,39.1403478 17.3073913,39.1494783 C17.0611304,39.0829565 16.8693913,39.033913 16.6813043,38.9898261 C16.4929565,38.9457391 16.2907826,38.9032174 16.0150435,38.847913 C15.9847826,38.8226087 16.0004348,38.736 16.0353913,38.721913 L16.220087,38.7422609 C16.4251304,38.772 16.4668696,38.768087 16.5725217,38.3146957 L17.0042609,36.4661739 C17.0462609,36.2864348 17.043913,36.2767826 16.9327826,36.2509565 L16.6930435,36.1948696 C16.2993913,36.1027826 16.1728696,36.1231304 15.9336522,36.4327826 C15.8976522,36.4513043 15.8107826,36.4176522 15.8037391,36.3706957 C15.9302609,36.1567826 16.0565217,35.9066087 16.1214783,35.7636522 C16.1329565,35.7529565 16.1512174,35.7524348 16.1726087,35.7573913 C16.1895652,35.7615652 16.2057391,35.7696522 16.2112174,35.7845217 C16.2075652,35.8964348 16.2665217,35.9149565 16.5576522,35.9827826 L18.3033913,36.3905217 C18.5131304,36.4395652 18.5804348,36.4413913 18.6545217,36.3550435 C18.6735652,36.3506087 18.6928696,36.345913 18.710087,36.350087 C18.7356522,36.3558261 18.7549565,36.3693913 18.7606957,36.3845217 C18.6769565,36.5496522 18.5566957,36.9096522 18.5373913,37.0497391 L18.5373913,37.0497391 Z M22.022087,36.7333043 L21.9425217,36.7442609 C21.7351304,36.764087 21.6954783,36.776087 21.6811304,37.2414783 L21.6307826,38.8747826 C21.6164348,39.3401739 21.6555652,39.3545217 21.8611304,39.3871304 L21.9573913,39.4033043 C21.9868696,39.4351304 21.9803478,39.5141739 21.9446087,39.5303478 C21.7515652,39.5157391 21.5543478,39.5050435 21.3610435,39.4993043 C21.1588696,39.4930435 20.9613913,39.4914783 20.7678261,39.494087 C20.7331304,39.4755652 20.7313043,39.3962609 20.7631304,39.3665217 L20.859913,39.3563478 C21.0670435,39.3365217 21.1072174,39.3245217 21.1213043,38.8591304 L21.1413913,38.2134783 C21.1450435,38.0950435 21.132,38.085913 20.9081739,38.0791304 L19.8806087,38.0475652 C19.6570435,38.0402609 19.6434783,38.0486087 19.6398261,38.1675652 L19.6197391,38.8126957 C19.6056522,39.278087 19.6447826,39.2924348 19.8503478,39.3208696 L19.9815652,39.3422609 C20.0113043,39.3743478 20.0045217,39.4528696 19.9687826,39.4695652 C19.7407826,39.4536522 19.5433043,39.4432174 19.35,39.4374783 C19.1569565,39.4312174 18.9592174,39.4296522 18.7922609,39.4333043 C18.7575652,39.4147826 18.7557391,39.3354783 18.7873043,39.3057391 L18.8488696,39.2989565 C19.0562609,39.2744348 19.0961739,39.2624348 19.1105217,38.7970435 L19.1608696,37.1637391 C19.1752174,36.6983478 19.136087,36.684 18.9305217,36.6513913 L18.8345217,36.6352174 C18.8042609,36.6122609 18.8115652,36.5246087 18.8473043,36.507913 C19.040087,36.5227826 19.2461739,36.5334783 19.4394783,36.5392174 C19.6325217,36.5454783 19.8305217,36.5470435 20.001913,36.5436522 C20.0363478,36.5621739 20.0381739,36.6503478 20.0066087,36.6712174 L19.9317391,36.6821739 C19.7243478,36.702 19.6844348,36.714 19.670087,37.1796522 L19.653913,37.7107826 C19.65,37.8336522 19.6627826,37.8430435 19.8868696,37.8498261 L20.9141739,37.8813913 C21.138,37.8881739 21.1515652,37.880087 21.1554783,37.7569565 L21.1716522,37.2258261 C21.186,36.7604348 21.1471304,36.7458261 20.9415652,36.7132174 L20.8453043,36.6973043 C20.8153043,36.6743478 20.8223478,36.5864348 20.858087,36.57 C21.0597391,36.5848696 21.2572174,36.5953043 21.4505217,36.6015652 C21.6435652,36.6073043 21.8413043,36.6091304 22.0168696,36.6057391 C22.0515652,36.6245217 22.0533913,36.7121739 22.022087,36.7333043 L22.022087,36.7333043 Z M24.5595652,39.1985217 C24.1633043,39.2778261 23.9133913,39.1935652 23.8171304,39.1591304 C23.7213913,39.0842609 23.6055652,38.7986087 23.5565217,38.5304348 C23.5734783,38.4824348 23.646,38.4631304 23.6866957,38.4866087 C23.8082609,38.6908696 24.1330435,39.1048696 24.5553913,39.020087 C24.8825217,38.9546087 25.0278261,38.7193043 24.9751304,38.4566087 C24.926087,38.2111304 24.7698261,38.0363478 24.4106087,37.92 L24.2047826,37.8537391 C23.8455652,37.737913 23.5085217,37.532087 23.4307826,37.1444348 C23.3452174,36.7181739 23.5914783,36.2924348 24.2201739,36.1664348 C24.4442609,36.1213043 24.6182609,36.140087 24.8285217,36.1382609 C24.8947826,36.2235652 24.9952174,36.4993043 25.0356522,36.7017391 C25.0218261,36.7445217 24.9451304,36.7646087 24.9002609,36.7424348 C24.7906957,36.5311304 24.582,36.2728696 24.216,36.3461739 C23.8716522,36.4155652 23.7743478,36.6678261 23.82,36.896087 C23.8562609,37.0771304 24.020087,37.2456522 24.3346957,37.3395652 L24.6302609,37.4282609 C24.9396522,37.5182609 25.3030435,37.7230435 25.3904348,38.1581739 C25.4887826,38.6491304 25.184087,39.0733043 24.5595652,39.1985217 L24.5595652,39.1985217 Z M28.4551304,37.8717391 C28.4086957,37.8978261 28.3648696,37.9322609 28.3241739,37.9612174 C28.2438261,38.0230435 27.9837391,38.1962609 27.7153043,38.2930435 C27.3062609,38.4406957 26.9251304,38.4850435 26.5578261,38.3984348 C26.1438261,38.3003478 25.7556522,38.0154783 25.5602609,37.4741739 C25.3857391,36.9907826 25.4647826,36.5371304 25.6854783,36.1909565 C25.9077391,35.8494783 26.2815652,35.5786957 26.6989565,35.4281739 C26.9342609,35.3428696 27.2342609,35.2810435 27.4466087,35.2606957 C27.5006087,35.2552174 27.5308696,35.2486957 27.5710435,35.2437391 C27.6138261,35.3355652 27.7103478,35.5763478 27.8621739,35.8672174 C27.8446957,35.9107826 27.771913,35.9415652 27.7327826,35.9233043 C27.5684348,35.6885217 27.2585217,35.4125217 26.7130435,35.6097391 C26.1884348,35.7991304 25.794,36.3623478 26.1,37.2091304 C26.418,38.0893043 27.1228696,38.3201739 27.6558261,38.127913 C28.1762609,37.9395652 28.278,37.5106957 28.2967826,37.2002609 C28.3207826,37.1496522 28.3925217,37.1423478 28.4266957,37.172087 C28.497913,37.4593043 28.4846087,37.7723478 28.4551304,37.8717391 L28.4551304,37.8717391 Z M30.1656522,37.0734783 C29.9903478,37.155913 29.8132174,37.244087 29.6423478,37.3338261 C29.4712174,37.424087 29.2901739,37.5242609 29.1232174,37.6218261 C29.0838261,37.6228696 29.0431304,37.5547826 29.0561739,37.5133043 L29.1354783,37.4564348 C29.306087,37.3369565 29.3350435,37.3069565 29.118,36.8947826 L28.3567826,35.448 C28.14,35.0358261 28.0990435,35.0426087 27.903913,35.1151304 L27.812087,35.1485217 C27.7706087,35.136 27.7377391,35.0637391 27.7606957,35.0306087 C27.936,34.9484348 28.1128696,34.8602609 28.2915652,34.7663478 C28.4626957,34.676087 28.6361739,34.5803478 28.8028696,34.4833043 C28.842,34.4827826 28.8829565,34.5506087 28.869913,34.592087 L28.7903478,34.6486957 C28.6202609,34.7681739 28.5913043,34.7984348 28.8083478,35.2108696 L29.5693043,36.6571304 C29.786087,37.0698261 29.8273043,37.0627826 30.0224348,36.99 L30.114,36.9566087 C30.1554783,36.9696522 30.1886087,37.0416522 30.1656522,37.0734783 L30.1656522,37.0734783 Z M31.6635652,36.1017391 L31.2529565,36.3886957 C31.0943478,36.4998261 30.8773043,36.6571304 30.7202609,36.7773913 C30.6811304,36.7833913 30.6323478,36.7210435 30.639913,36.6782609 L30.7633043,36.5705217 C30.9198261,36.434087 30.9446087,36.4006957 30.6777391,36.0187826 L29.7401739,34.6786957 C29.4730435,34.2970435 29.4333913,34.3087826 29.2463478,34.401913 L29.1837391,34.4350435 C29.1406957,34.4274783 29.0992174,34.3601739 29.1177391,34.3254783 C29.2596522,34.2370435 29.4313043,34.1222609 29.589913,34.0113913 L30.278087,33.530087 C30.5084348,33.3688696 30.7150435,33.2191304 30.7567826,33.1789565 C30.8141739,33.2303478 31.0348696,33.4995652 31.1647826,33.6393913 C31.1702609,33.6785217 31.1034783,33.735913 31.0596522,33.7343478 C30.8556522,33.5658261 30.7387826,33.5136522 30.6033913,33.5655652 C30.5029565,33.5981739 30.3897391,33.6667826 30.2924348,33.7346087 L30.0508696,33.9033913 C29.8961739,34.011913 29.9011304,34.0189565 30.0448696,34.2242609 L30.4708696,34.8331304 C30.536087,34.9267826 30.542087,34.9278261 30.6250435,34.869913 L30.798,34.7488696 C31.1115652,34.5297391 31.1702609,34.4830435 31.0870435,34.3106087 L31.0265217,34.1705217 C31.0377391,34.1251304 31.106087,34.0773913 31.1444348,34.094087 C31.2088696,34.1937391 31.2923478,34.3286087 31.3854783,34.4616522 C31.4812174,34.5986087 31.5766957,34.7196522 31.6609565,34.832087 C31.6604348,34.869913 31.592087,34.917913 31.5482609,34.9163478 L31.422,34.7898261 C31.2910435,34.6562609 31.2247826,34.6917391 30.9114783,34.9111304 L30.7385217,35.031913 C30.6558261,35.090087 30.6571304,35.0997391 30.72,35.1897391 L31.0398261,35.6470435 C31.1684348,35.8309565 31.2665217,35.9556522 31.3635652,35.9791304 C31.4418261,35.9992174 31.5234783,35.9851304 31.8258261,35.7735652 C32.2883478,35.4607826 32.2946087,35.3008696 32.2166087,34.9207826 C32.2314783,34.8730435 32.300087,34.8412174 32.3467826,34.862087 C32.4313043,35.0282609 32.5434783,35.3574783 32.5609565,35.49 C32.3973913,35.5935652 32.0851304,35.8069565 31.6635652,36.1017391 L31.6635652,36.1017391 Z M35.1044348,33.1737391 C34.9896522,33.1591304 34.7934783,33.1455652 34.3150435,33.1181739 L32.7573913,33.0286957 C32.3285217,33.0073043 32.1109565,32.9906087 32.0115652,32.9976522 C32.0024348,33.0070435 32.0371304,33.0409565 32.2027826,33.2042609 L32.8137391,33.8050435 C33.0485217,34.0361739 33.339913,34.3163478 33.4862609,34.3554783 C33.5608696,34.3737391 33.6323478,34.3387826 33.722087,34.2727826 L33.7990435,34.2130435 C33.8486087,34.2065217 33.9049565,34.268087 33.8835652,34.3087826 C33.7633043,34.418087 33.639913,34.5375652 33.5230435,34.6565217 C33.3936522,34.788 33.3135652,34.8756522 33.212087,34.9917391 C33.1716522,35.0013913 33.1124348,34.9552174 33.1150435,34.9085217 L33.1672174,34.8242609 C33.2162609,34.7553913 33.2593043,34.6867826 33.2308696,34.6155652 C33.1737391,34.4793913 32.9011304,34.2114783 32.6535652,33.9678261 L31.9111304,33.2376522 C31.6666957,32.9973913 31.6197391,32.9449565 31.424087,32.961913 C31.362,32.9689565 31.2508696,33.0318261 31.1981739,33.0665217 L31.1426087,33.1043478 C31.1021739,33.1077391 31.0424348,33.0430435 31.0638261,33.0026087 C31.1937391,32.895913 31.359913,32.7203478 31.4368696,32.6418261 C31.5015652,32.576087 31.5722609,32.4978261 31.640087,32.4166957 C31.8271304,32.4957391 32.5578261,32.5426957 32.7845217,32.55 L33.4309565,32.5695652 C33.7046087,32.5797391 34.3231304,32.6146957 34.3726957,32.6021739 C34.3726957,32.5833913 34.3567826,32.568 34.3069565,32.5186957 L33.696,31.917913 C33.4612174,31.6867826 33.1695652,31.4066087 33.0203478,31.3706087 C32.9454783,31.3526087 32.8773913,31.3841739 32.787913,31.4501739 L32.7075652,31.5130435 C32.658,31.5195652 32.6016522,31.458 32.6230435,31.4170435 C32.7493043,31.3006957 32.8664348,31.188 32.9866957,31.0656522 C33.1192174,30.9307826 33.1961739,30.8465217 33.3005217,30.728087 C33.3412174,30.7184348 33.4004348,30.7646087 33.3978261,30.8110435 L33.3427826,30.8984348 C33.2934783,30.9673043 33.2538261,31.0330435 33.2822609,31.104 C33.3362609,31.2435652 33.6088696,31.5117391 33.8561739,31.7551304 L34.6048696,32.4913043 C34.6987826,32.5836522 35.084087,32.9626957 35.1654783,33.0242609 C35.1753913,33.0829565 35.1446087,33.1393043 35.1044348,33.1737391 L35.1044348,33.1737391 Z M37.0163478,30.342 C36.9873913,30.4395652 36.8788696,30.7322609 36.7184348,30.9683478 C36.474,31.328087 36.1914783,31.5876522 35.8429565,31.7334783 C35.4506087,31.8970435 34.9693043,31.8941739 34.4934783,31.5709565 C34.068,31.281913 33.8655652,30.8684348 33.8413043,30.4588696 C33.8204348,30.0516522 33.9641739,29.6131304 34.2133043,29.2458261 C34.3541739,29.0386957 34.5605217,28.8127826 34.7204348,28.6713913 C34.7608696,28.6353913 34.7817391,28.6124348 34.8112174,28.5845217 C34.899913,28.634087 35.1190435,28.7723478 35.4127826,28.9186957 C35.4245217,28.9638261 35.3838261,29.031913 35.3413043,29.04 C35.07,28.9463478 34.6573043,28.9051304 34.3314783,29.3848696 C34.0181739,29.846087 34.0293913,30.5334783 34.7746957,31.0393043 C35.5484348,31.5652174 36.2548696,31.3385217 36.5731304,30.8697391 C36.884087,30.4116522 36.7145217,30.0046957 36.5473043,29.7425217 C36.5371304,29.6874783 36.5911304,29.6392174 36.6357391,29.6431304 C36.8621739,29.8338261 37.0353913,30.0949565 37.070087,30.1927826 C37.0476522,30.2413043 37.0325217,30.2947826 37.0163478,30.342 L37.0163478,30.342 Z M37.9886087,28.4937391 L37.7812174,28.9497391 C37.7013913,29.1255652 37.5941739,29.3715652 37.5203478,29.5552174 C37.4898261,29.58 37.4162609,29.5510435 37.4008696,29.5103478 L37.452,29.3548696 C37.5177391,29.157913 37.521913,29.1164348 37.098,28.9236522 L35.6097391,28.2469565 C35.1858261,28.0541739 35.1571304,28.0846957 35.043913,28.26 L35.0068696,28.3202609 C34.9661739,28.3356522 34.896,28.2988696 34.8944348,28.2594783 C34.9716522,28.1113043 35.0608696,27.9250435 35.1409565,27.7489565 L35.4884348,26.9848696 C35.6050435,26.7289565 35.7065217,26.4952174 35.7221739,26.4393913 C35.7973043,26.4542609 36.1244348,26.574 36.3073043,26.6282609 C36.3318261,26.6587826 36.3036522,26.7425217 36.2650435,26.7636522 C36.0041739,26.7221739 35.8766087,26.7365217 35.7866087,26.85 C35.7166957,26.9290435 35.654087,27.0456522 35.6047826,27.1536522 L35.4829565,27.4215652 C35.4049565,27.5937391 35.4127826,27.5973913 35.6407826,27.7012174 L36.3169565,28.0085217 C36.4207826,28.0557391 36.4267826,28.0536522 36.4687826,27.9615652 L36.555913,27.7695652 C36.7142609,27.4215652 36.7411304,27.351913 36.5817391,27.2454783 L36.4586087,27.1557391 C36.4450435,27.1108696 36.4794783,27.0349565 36.5206957,27.0297391 C36.6268696,27.0826957 36.7672174,27.1565217 36.9153913,27.2235652 C37.0674783,27.2926957 37.2112174,27.3485217 37.3408696,27.4022609 C37.359913,27.4351304 37.3252174,27.5110435 37.2866087,27.5321739 L37.1136522,27.4873043 C36.9328696,27.4390435 36.8942609,27.5034783 36.7356522,27.8514783 L36.6485217,28.0434783 C36.6067826,28.1355652 36.6130435,28.1431304 36.7126957,28.1887826 L37.2211304,28.4193913 C37.4251304,28.5125217 37.5727826,28.569913 37.668,28.5406957 C37.7457391,28.5182609 37.8088696,28.4647826 37.9614783,28.1287826 C38.2004348,27.6245217 38.1247826,27.4833913 37.8641739,27.1961739 C37.8526957,27.1473913 37.8954783,27.0847826 37.9463478,27.0793043 C38.1033913,27.1797391 38.3676522,27.405913 38.4503478,27.5107826 C38.3621739,27.6832174 38.2017391,28.0254783 37.9886087,28.4937391 L37.9886087,28.4937391 Z M38.9347826,26.1764348 C38.82,26.564087 38.6290435,26.745913 38.5533913,26.8153043 C38.4425217,26.8648696 38.1352174,26.8338261 37.8753913,26.7524348 C37.8406957,26.7146087 37.8576522,26.6418261 37.8970435,26.6167826 C38.1344348,26.6042609 38.6527826,26.510087 38.7748696,26.0968696 C38.8695652,25.7765217 38.7292174,25.5378261 38.4722609,25.461913 C38.2317391,25.3909565 38.0045217,25.4475652 37.734,25.7113043 L37.5790435,25.8628696 C37.3085217,26.1263478 36.9691304,26.3287826 36.5898261,26.2166087 C36.1724348,26.0932174 35.9105217,25.6768696 36.0923478,25.0612174 C36.1573043,24.842087 36.2551304,24.6967826 36.3516522,24.51 C36.458087,24.4909565 36.7489565,24.5308696 36.9469565,24.5895652 C36.9787826,24.621913 36.9605217,24.6991304 36.9195652,24.7283478 C36.6816522,24.7265217 36.3555652,24.7906957 36.249913,25.1488696 C36.1502609,25.4861739 36.3281739,25.689913 36.5517391,25.7561739 C36.7286087,25.8086087 36.9545217,25.7423478 37.1843478,25.5075652 L37.4006087,25.2873913 C37.6246957,25.056 37.9758261,24.8295652 38.4018261,24.9553043 C38.8823478,25.0974783 39.1153043,25.5652174 38.9347826,26.1764348 L38.9347826,26.1764348 Z M37.9056522,22.2023478 C37.9296522,21.914087 38.1748696,21.7035652 38.4665217,21.728087 C38.7584348,21.7526087 38.9616522,22.0004348 38.937913,22.2886957 C38.9136522,22.5772174 38.6718261,22.788 38.3801739,22.7637391 C38.0882609,22.7392174 37.8816522,22.4908696 37.9056522,22.2023478 L37.9056522,22.2023478 Z M39.5608696,19.2130435 L39.5146957,19.0917391 C39.4484348,18.9018261 39.3573913,18.8632174 38.9394783,18.6993913 C38.6681739,18.5916522 38.4083478,18.500087 38.1438261,18.4048696 C37.8970435,18.3109565 37.8010435,18.2953043 37.506,18.3427826 L37.2456522,18.3850435 C36.7857391,18.4593913 36.7789565,18.5003478 36.7917391,18.7163478 L36.8008696,18.8843478 C36.7755652,18.9193043 36.6967826,18.927913 36.6735652,18.8963478 C36.6388696,18.6258261 36.612,18.429913 36.5809565,18.2389565 C36.5486087,18.0393913 36.5128696,17.8447826 36.4661739,17.6115652 C36.4781739,17.574 36.5553913,17.5570435 36.5908696,17.5823478 L36.6305217,17.7185217 C36.6853043,17.9191304 36.7046087,17.955913 37.1645217,17.8818261 L37.4204348,17.8403478 C37.6635652,17.8009565 37.7256522,17.7733043 37.9361739,17.6144348 L38.8802609,16.928087 C39.0513913,16.8023478 39.0978261,16.7593043 39.1053913,16.5576522 L39.1132174,16.4405217 C39.1393043,16.4097391 39.2230435,16.4050435 39.2418261,16.4376522 C39.2634783,16.6257391 39.2882609,16.8088696 39.3169565,16.9865217 C39.348,17.1777391 39.3949565,17.4417391 39.4197391,17.5395652 C39.408,17.5773913 39.3310435,17.5985217 39.2955652,17.5687826 L39.2527826,17.442 C39.2329565,17.3741739 39.2162609,17.3543478 39.1813043,17.360087 C39.1466087,17.3655652 39.102,17.3908696 38.9684348,17.4746087 C38.6235652,17.7083478 38.2972174,17.9212174 38.0084348,18.146087 C38.3668696,18.2707826 38.6966087,18.3821739 39.0495652,18.4987826 C39.2089565,18.5486087 39.3112174,18.5767826 39.3589565,18.5692174 C39.4022609,18.561913 39.4090435,18.5209565 39.408,18.4588696 L39.4173913,18.3237391 C39.4426957,18.2882609 39.5165217,18.2765217 39.5452174,18.3172174 C39.5673913,18.5094783 39.5846087,18.6448696 39.6057391,18.7750435 C39.6273913,18.9093913 39.6542609,19.047913 39.6853043,19.184087 C39.669913,19.2266087 39.6005217,19.2378261 39.5608696,19.2130435 L39.5608696,19.2130435 Z" id="Fill-6" sketch:type="MSShapeGroup"></path>
                <path d="M12.2778261,35.1626087 L11.8601739,35.5147826 C11.7545217,35.6008696 11.7657391,35.6073913 11.8570435,35.6603478 L12.2522609,35.8896522 C12.3586957,35.9514783 12.3785217,35.9525217 12.4009565,35.8437391 L12.5058261,35.2951304 C12.5582609,35.055913 12.5773043,34.9706087 12.5736522,34.9327826 L12.566087,34.9286087 C12.5355652,34.9463478 12.45,35.0238261 12.2778261,35.1626087" id="Fill-7" sketch:type="MSShapeGroup"></path>
                <path d="M18.0605217,24.3333913 C18.2723478,24.1633043 23.5072174,19.9546957 25.0246957,18.5107826 C25.8785217,17.6981739 26.0726087,16.7293043 26.0496522,15.956087 L26.9246087,17.054087 C27.3897391,17.907913 27.6495652,19.4942609 26.4412174,20.5666957 C24.8869565,21.9453913 19.5482609,26.3287826 19.4947826,26.3728696 C19.4689565,26.3953043 17.8985217,27.42 18.3417391,29.4626087 L17.6462609,28.59 C15.944087,26.2273043 17.9715652,24.4106087 18.0605217,24.3333913" id="Fill-8" sketch:type="MSShapeGroup"></path>
                <path d="M19.8832174,26.832 C19.9304348,26.7941739 25.2774783,22.4024348 26.840087,21.015913 C27.7797391,20.1829565 27.9466957,19.1063478 27.8950435,18.2713043 L28.3737391,18.8726087 C28.3737391,18.8726087 29.994,20.7286957 28.0708696,22.4814783 C26.4362609,23.9723478 21.5986957,27.8167826 21.5986957,27.8167826 C21.5986957,27.8167826 19.2057391,29.7649565 20.9347826,32.7169565 L19.5764348,31.0129565 C17.8069565,28.406087 19.7981739,26.9055652 19.8832174,26.832" id="Fill-9" sketch:type="MSShapeGroup"></path>
                <path d="M15.7533913,21.6803478 C15.8026957,21.6396522 21.1672174,17.2635652 22.7157391,15.8598261 C23.6887826,14.9775652 23.8192174,13.8730435 23.7406957,13.0575652 L25.0113913,14.652 L24.9568696,14.6569565 L25.0189565,14.661913 L25.1543478,14.832 C25.4011304,15.3357391 25.9265217,16.7446957 24.609913,18.0751304 C23.1547826,19.5461739 17.727913,23.8291304 17.673913,23.8724348 C17.648087,23.8953913 16.2174783,25.1746957 16.3841739,27.0049565 L15.4536522,25.8370435 C13.7473043,23.5106087 15.6644348,21.7562609 15.7533913,21.6803478" id="Fill-10" sketch:type="MSShapeGroup"></path>
                <path d="M13.1895652,18.2613913 C13.1895652,18.2613913 18.5066087,13.8563478 20.1083478,12.4870435 C21.4849565,11.3094783 20.4104348,8.87817391 20.4104348,8.87817391 L22.5727826,11.5927826 C22.8644348,12.1168696 23.8192174,14.0178261 22.3113913,15.414 C20.7897391,16.8242609 15.4223478,21.1734783 15.3691304,21.2178261 C15.3461739,21.2363478 13.9312174,22.4071304 14.1333913,24.1807826 L12.9725217,22.7233043 C11.0483478,20.1127826 13.1895652,18.2613913 13.1895652,18.2613913" id="Fill-11" sketch:type="MSShapeGroup"></path>
            </g>
        </g>
    </g>
</svg>