<svg width="42" height="43" viewBox="0 0 42 43" xmlns="http://www.w3.org/2000/svg" xmlns:sketch="http://www.bohemiancoding.com/sketch/ns"><title>Imported Layers</title><desc>Created with Sketch.</desc><g sketch:type="MSLayerGroup" fill="#fff"><path d="M20.938 35.307c-7.471 0-13.549-6.078-13.549-13.549 0-7.471 6.078-13.549 13.549-13.549 7.471 0 13.549 6.078 13.549 13.549 0 7.471-6.078 13.549-13.549 13.549zm0-26.441c-7.108 0-12.891 5.783-12.891 12.892 0 7.108 5.783 12.891 12.891 12.891s12.891-5.783 12.891-12.891c0-7.109-5.783-12.892-12.891-12.892z" sketch:type="MSShapeGroup"/><path d="M5.829 16.505c.266-.735-.135-1.254-.834-1.506-.818-.296-1.387.036-1.636.726-.063.173-.077.318-.063.356.014.038.1.073.294.143l1.454.525c.401.145.626.194.784-.244" sketch:type="MSShapeGroup"/><path d="M5.718 26.455c-.13-.419-.579-.782-1.473-.503-.579.18-1.291.673-1.067 1.39.149.479.626.753 1.469.491.634-.197 1.279-.711 1.071-1.378" sketch:type="MSShapeGroup"/><path d="M3.97 18.743l-.55.095-.363.064-.001.009.321.187.477.266c.118.069.12.056.137-.049l.075-.451c.02-.121.014-.14-.095-.123" sketch:type="MSShapeGroup"/><path d="M33.873 10.267c.283.325.571.336.886.062.262-.227.344-.596.093-.884-.15-.172-.163-.167-.315-.035l-.69.599c-.106.092-.113.098.026.257" sketch:type="MSShapeGroup"/><path d="M20.836.879c-11.498 0-20.853 9.355-20.853 20.853 0 11.498 9.354 20.852 20.853 20.852 11.498 0 20.854-9.354 20.854-20.852 0-11.498-9.355-20.853-20.854-20.853zm17.591 13.672l-.003.047c-.097.056-.081.116.015.399l.575 1.697c.069.204.103.262.215.28l.033.044-.003.061c-.185.016-.554.104-.682.162-.04-.01-.073-.077-.056-.125.306-.164.358-.27.207-.715l-.08-.237c-.037-.108-.046-.109-.221-.05l-1.797.609c-.441.149-.441.191-.395.393l.034.155c-.019.039-.095.061-.123.032l-.195-.615-.231-.64c.005-.039.087-.071.118-.049l.08.168c.083.19.108.223.549.074l1.797-.609c.175-.059.182-.066.145-.174l-.079-.233c-.13-.382-.214-.479-.603-.519-.035-.021-.052-.112-.016-.143.249-.005.527-.03.683-.051l.032.04zm-.954-1.365l-.031-.093c.014-.041.087-.071.118-.047l.248.539.267.52c0 .039-.07.078-.111.064l-.054-.081c-.114-.174-.143-.204-.562-.001l-1.471.714c-.419.203-.414.245-.347.442l.03.093c-.014.041-.087.072-.118.048l-.243-.531-.271-.528c0-.039.069-.078.111-.064l.054.081c.114.174.143.204.562.001l1.471-.714c.419-.203.413-.244.347-.442zm-2.133 8.572c0 7.953-6.448 14.401-14.401 14.401-7.953 0-14.401-6.448-14.401-14.401 0-7.953 6.447-14.401 14.401-14.401s14.401 6.448 14.401 14.401zm.471-10.187c.369-.23.855-.15 1.194.395.121.194.164.364.24.56-.056.092-.279.283-.455.392-.045.002-.091-.063-.086-.112.159-.177.328-.463.13-.78-.186-.298-.457-.301-.654-.177-.157.098-.257.31-.234.638l.021.308c.024.321-.039.734-.416.969-.425.265-.929.129-1.267-.412-.214-.343-.223-.607-.225-.709.036-.116.263-.325.497-.465.051-.001.094.06.087.106-.148.186-.422.636-.194 1.001.177.284.448.337.676.195.213-.133.321-.34.304-.717l-.01-.216c-.018-.377.057-.765.392-.974zm-1.584-2.845l-.065-.095c.003-.043.056-.089.095-.077.202.191.456.465.693.737.225.259.388.513.435.728.057.247.008.505-.231.713-.305.265-.662.162-.87.057l-.056.049c-.217.654-.355 1.065-.349 1.333.001.162.065.276.096.318l-.061.064-.21-.201c-.277-.318-.297-.603-.165-1.073l.224-.654c.047-.146.029-.194-.066-.304-.086-.099-.093-.1-.162-.039l-.424.369c-.351.305-.335.344-.22.517l.053.082c-.003.043-.066.092-.102.077l-.374-.45-.399-.439c-.01-.038.041-.1.09-.09l.074.064c.155.139.191.16.543-.146l1.213-1.055c.319-.277.355-.314.236-.485zm-2.147-1.917l-.049-.052c-.004-.043.05-.101.088-.092l.427.373.644.537c.216.18.415.339.464.369l-.337.514c-.036.016-.109-.034-.119-.076.109-.241.129-.367.043-.484-.058-.088-.154-.179-.245-.255l-.226-.188c-.145-.121-.151-.114-.311.078l-.475.571c-.073.088-.072.094.005.159l.162.135c.294.244.354.289.499.164l.119-.095c.047-.001.111.052.105.094l-.291.329-.285.363c-.037.01-.101-.044-.111-.087l.089-.155c.094-.161.043-.216-.251-.46l-.162-.135c-.077-.065-.087-.061-.157.024l-.357.429c-.143.172-.238.299-.235.399.001.081.036.156.32.392.423.364.579.328.925.153.05.002.099.059.091.11-.138.125-.426.319-.549.371-.143-.13-.43-.375-.825-.704l-.385-.32-.515-.412c-.016-.036.032-.099.075-.104l.136.091c.173.115.212.13.509-.227l1.046-1.256c.298-.358.276-.393.137-.549zm-3.057.711l.28-1.983c.044-.316.041-.389-.092-.509l-.08-.073c-.011-.042.029-.11.074-.1l.451.282.506.285c.021.043-.011.106-.061.112l-.108-.033c-.095-.03-.136-.029-.154.001-.02.034-.039.135-.112.612l-.126.835-.076.603c.486-.356 1.022-.743 1.526-1.139.15-.115.157-.152.059-.246l-.094-.091c-.009-.046.031-.104.072-.106l.398.251.374.207c.019.037-.021.095-.058.114l-.105-.037c-.098-.033-.197-.055-.326.016-.213.119-.473.308-.869.589l-.489.344c-.355.255-.794.592-.973.747l-.075-.019-.061-.061c.044-.178.093-.399.119-.598zm-1.233-3.232l.54.246.542.217c.025.03-.002.104-.042.121l-.094-.026c-.2-.057-.242-.061-.425.367l-.644 1.502c-.183.428-.152.455.027.561l.084.05c.016.04-.019.111-.058.114l-.532-.242-.55-.222c-.025-.03.002-.104.042-.121l.094.026c.2.057.242.061.425-.367l.644-1.502c.184-.428.153-.455-.027-.561l-.083-.05c-.016-.04.019-.111.058-.113zm-3.555.805l.272-1.005c.09-.331.112-.397.002-.56-.036-.051-.146-.117-.202-.146l-.06-.03c-.023-.034.005-.117.051-.119.156.061.391.12.497.148l.296.068c.022.202.339.861.444 1.063l.299.573c.125.243.398.8.433.837l.04-.098.224-.827c.087-.318.188-.709.146-.857-.021-.074-.082-.118-.183-.164l-.094-.039c-.03-.04-.004-.119.042-.122l.484.145.449.109c.028.031.017.105-.025.125l-.103-.005c-.084-.009-.161-.012-.209.048-.095.116-.195.484-.286.819l-.275 1.013c-.034.127-.176.649-.189.749-.047.037-.111.038-.16.02-.044-.107-.128-.285-.339-.715l-.685-1.401c-.191-.384-.283-.582-.338-.665l-.086.268-.225.827c-.086.318-.188.709-.15.856.021.074.086.119.187.165l.09.038c.03.04.004.119-.042.12l-.48-.143-.445-.107c-.028-.031-.017-.105.025-.125l.099.004c.084.009.165.013.213-.047.091-.117.191-.485.282-.82zm-3.43-2.143l.565.052.588.028c.034.02.033.095 0 .123l-.097.006c-.208.017-.249.027-.28.491l-.069 1.004c-.042.605.107 1.126.716 1.168.574.04.841-.378.887-1.044l.038-.548c.023-.329.046-.736-.024-.869-.035-.069-.103-.104-.211-.129l-.087-.019c-.038-.033-.028-.112.017-.123l.485.046.466.02c.033.024.037.095 0 .123l-.098.015c-.085.012-.165.024-.2.092-.071.127-.097.513-.121.859l-.036.521c-.028.399-.115.763-.359.993-.245.23-.579.29-.882.269-.412-.028-.695-.136-.883-.343-.184-.202-.255-.515-.225-.958l.077-1.113c.032-.464-.006-.48-.21-.525l-.074-.018c-.028-.033-.019-.107.017-.123zm-4.571.503l.044-.026.046.009c.041.104.103.097.397.043l1.762-.328c.212-.039.274-.064.307-.173l.049-.027.06.011c-.01.185.024.563.063.699-.015.039-.087.061-.131.038-.119-.326-.216-.393-.679-.307l-.246.046c-.112.021-.115.03-.081.212l.347 1.866c.085.458.127.463.333.447l.159-.012c.036.025.046.103.015.127l-.637.105-.667.138c-.038-.011-.058-.096-.032-.124l.178-.055c.2-.055.236-.075.151-.533l-.347-1.866c-.034-.181-.04-.189-.152-.168l-.242.045c-.397.074-.505.143-.6.523-.026.032-.118.036-.144-.004.03-.247.045-.527.047-.683zm-1.226.451c.216-.074.391-.078.599-.107.077.076.212.336.279.531-.008.045-.081.074-.129.058-.136-.195-.377-.423-.73-.303-.333.114-.396.377-.32.597.059.175.244.32.568.372l.305.049c.319.049.706.204.849.624.162.474-.085.934-.687 1.14-.382.131-.641.08-.741.058-.105-.062-.257-.33-.341-.589.011-.05.08-.078.123-.061.147.186.524.554.931.415.316-.108.429-.36.343-.614-.081-.237-.259-.39-.63-.458l-.213-.038c-.371-.068-.733-.228-.86-.602-.141-.411.047-.866.654-1.073zm-2.4 1.039l.545-.235.526-.255c.039.001.076.071.061.112l-.082.052c-.177.11-.207.139-.014.562l.68 1.487c.194.423.235.419.434.357l.093-.028c.041.015.07.089.045.119l-.537.231-.534.259c-.039-.001-.076-.071-.061-.112l.082-.052c.177-.11.207-.139.014-.562l-.68-1.487c-.194-.424-.235-.419-.434-.357l-.093.028c-.041-.015-.07-.089-.045-.119zm-2.668 1.43l.047-.008c.077.082.131.053.385-.105l1.522-.948c.183-.114.232-.16.223-.274l.036-.043.06-.012c.058.176.228.515.314.628 0 .041-.059.088-.109.083-.23-.261-.345-.287-.744-.039l-.213.133c-.097.06-.096.07.002.227l1.004 1.611c.247.395.287.385.474.295l.143-.069c.043.01.081.079.06.112l-.555.331-.571.371c-.039.004-.089-.069-.075-.104l.145-.116c.166-.124.193-.156-.054-.551l-1.004-1.611c-.098-.157-.106-.162-.203-.101l-.209.13c-.343.214-.418.318-.368.706-.012.039-.097.076-.136.048-.062-.241-.15-.507-.205-.654l.032-.04zm-2.691 2.467c.136-.098.314-.262.396-.335l.218-.213c.182.092.908.186 1.134.208l.644.062c.272.028.887.104.938.094l-.06-.087-.571-.64c-.219-.246-.492-.545-.639-.591-.073-.023-.143.004-.237.064l-.084.058c-.05.003-.102-.062-.078-.1l.386-.327.336-.318c.041-.007.097.043.092.089l-.061.084c-.053.065-.098.128-.074.201.045.143.299.428.53.687l.699.784c.088.098.448.502.525.568.006.059-.028.114-.07.145-.114-.022-.309-.049-.785-.107l-1.549-.191c-.427-.049-.643-.08-.742-.08l.177.219.571.64c.219.246.492.545.635.593.073.023.147-.007.24-.067l.081-.055c.05-.003.102.062.078.101l-.383.324-.332.314c-.041.007-.097-.043-.092-.089l.058-.081c.053-.065.101-.131.077-.204-.048-.14-.303-.425-.534-.684l-.693-.777c-.228-.256-.272-.311-.468-.307-.062.003-.178.058-.232.089l-.058.034c-.041.001-.096-.068-.072-.106zm-1.373 1.756l.518-.661c.173-.221.327-.425.356-.475l.524.321c.017.035-.03.11-.073.122-.244-.102-.371-.118-.485-.029-.087.061-.175.159-.248.252l-.182.232c-.117.149-.11.154.087.309l.585.458c.09.07.096.07.159-.01l.13-.166c.236-.301.279-.363.149-.503l-.099-.116c-.002-.047.049-.113.09-.107l.338.281.371.274c.011.036-.041.102-.083.113l-.157-.084c-.164-.09-.217-.037-.453.265l-.13.166c-.063.08-.058.088.028.156l.439.344c.176.138.306.229.406.223.081-.004.155-.041.382-.332.351-.434.31-.589.125-.929 0-.05.057-.101.107-.095.129.135.332.417.388.538-.126.147-.363.442-.68.846l-.309.394-.396.527c-.035.017-.1-.028-.106-.072l.086-.139c.11-.176.124-.215-.243-.503l-1.287-1.008c-.367-.287-.401-.265-.553-.121l-.05.05c-.043.005-.103-.047-.095-.086l.36-.438zm-1.744 2.812l.273-.512c.042-.022.106.009.113.058l-.031.109c-.028.095-.026.136.004.154.034.019.136.036.615.099l.837.108.605.063c-.366-.478-.765-1.005-1.172-1.501-.119-.147-.156-.153-.247-.053l-.089.096c-.046.009-.105-.029-.107-.071l.242-.403.197-.377c.037-.02.095.018.115.055l-.035.106c-.03.099-.051.198.023.326.124.211.318.466.608.856l.354.482c.262.349.609.781.768.956l-.017.076-.06.062c-.179-.04-.401-.084-.601-.106l-1.989-.236c-.317-.037-.39-.033-.507.103l-.071.081c-.042.012-.111-.027-.101-.072l.272-.457zm-1.576 5.488c-.005-.157-.159-.329-.158-.338l.047-.068.626-.096 1.92-.322c.306-.051.341-.068.416-.281l-.003-.003.021-.096c.045-.203.046-.245-.392-.403l-1.512-.546c-.397-.143-.448-.157-.543.028l-.04.084c-.031.021-.106-.005-.114-.046.083-.307.19-.641.336-1.047.142-.392.276-.661.493-.924.361-.43.926-.623 1.541-.401.459.166.848.563.923 1.169.043.347-.036.72-.172 1.096l-.241.59-.15.446.004.004-.107.561-.075.531c-.027.031-.106.023-.128-.008l.003-.098c.009-.159-.015-.176-.211-.151l-.623.106c-.124.024-.127.037-.147.159l-.096.577c-.019.112-.018.108.093.167l.491.264c.241.129.257.114.305-.043l.043-.122c.035-.026.113-.008.124.029l-.089.458-.058.431c-.027.027-.092.02-.126-.017v-.134c.003-.129-.028-.183-.16-.272l-.494-.3-1.444-.85c-.129-.079-.227-.136-.303-.135zm1.415 4.308c.024.289-.183.537-.475.561-.292.024-.533-.187-.557-.475-.024-.288.179-.536.471-.561.292-.025.537.186.561.474zm-.974 4.15c-.295-.948.202-1.701.949-1.934.856-.266 1.683.158 1.957 1.039.302.969-.239 1.685-1.003 1.923-.827.257-1.639-.18-1.903-1.028zm2.437 3.02l.137-.108c.147-.118.124-.185-.048-.526l-.116-.232c-.045-.09-.055-.09-.153-.041l-.55.276c-.416.209-.41.25-.333.442l.063.175c-.014.041-.086.073-.118.049l-.29-.606-.278-.524c0-.039.068-.079.11-.065l.055.08c.116.173.146.202.562-.007l1.46-.733c.416-.209.41-.25.345-.448l-.018-.055c.014-.041.086-.073.118-.049l.233.493.372.742c.126.251.241.469.29.548l-.561.291c-.039 0-.083-.067-.079-.118.208-.153.29-.273.254-.442-.026-.12-.071-.22-.134-.346l-.1-.2c-.083-.165-.091-.161-.31-.05l-.703.352c-.098.05-.104.057-.059.147l.116.232c.171.341.211.4.393.353l.149-.036c.039.01.077.084.055.119l-.398.185-.402.218c-.041-.004-.079-.079-.063-.116zm2.254 4.515l.052.083c-.004.043-.067.091-.103.075l-.366-.455-.392-.445c-.009-.038.049-.093.092-.089l.072.065c.153.141.189.163.545-.137l.494-.416c.091-.076.089-.092-.055-.263l-.662-.786c-.144-.171-.159-.176-.25-.099l-.494.416c-.356.3-.341.339-.224.511l.071.112c-.004.043-.067.091-.103.075l-.389-.482-.369-.418c-.009-.038.048-.093.092-.089l.046.041c.157.138.192.16.548-.14l1.25-1.053c.356-.3.34-.339.228-.514l-.052-.082c-.003-.038.067-.091.103-.075l.372.462.373.422c.009.038-.055.098-.092.089l-.058-.048c-.153-.141-.189-.163-.545.137l-.406.343c-.094.079-.092.095.052.266l.662.786c.144.171.159.176.254.097l.406-.343c.356-.3.341-.339.228-.514l-.052-.082c-.003-.038.067-.091.103-.075l.372.462.375.425c.009.038-.055.098-.092.089l-.061-.052c-.153-.141-.189-.163-.545.137l-1.25 1.053c-.356.3-.341.339-.228.513zm1.36 1.329l-.387-.319-.517-.409c-.016-.036.031-.1.074-.104l.136.09c.173.115.212.129.509-.23l1.039-1.261c.296-.359.274-.395.134-.55l-.049-.052c-.004-.043.049-.101.088-.093l.429.371.648.534c.217.179.417.338.466.367l-.334.516c-.036.016-.109-.033-.119-.076.108-.241.127-.368.04-.484-.058-.088-.154-.179-.246-.254l-.227-.187c-.146-.12-.152-.113-.311.08l-.472.573c-.073.088-.072.094.006.159l.163.134c.295.243.356.287.5.161l.119-.096c.047-.001.111.052.106.092l-.29.331-.283.365c-.037.01-.101-.043-.111-.086l.088-.155c.094-.162.041-.216-.254-.46l-.163-.134c-.078-.064-.087-.06-.157.025l-.355.431c-.143.173-.237.301-.233.4.001.081.037.155.322.39.425.362.581.325.926.148.05.001.099.059.092.11-.137.126-.425.322-.548.375-.144-.13-.432-.374-.829-.7zm3.998-.091l-.377 1.911c-.06.305-.057.343.117.49l.05.044c.015.044-.022.109-.06.112l-.488-.298-.47-.258c-.02-.037.016-.107.052-.117l.09.037c.146.064.17.048.216-.144l.121-.621c.022-.125.01-.131-.096-.193l-.506-.293c-.099-.057-.095-.055-.189.027l-.421.366c-.206.18-.197.2-.068.301l.099.083c.011.042-.032.108-.071.106l-.397-.245-.383-.207c-.016-.034.014-.094.06-.112l.125.047c.119.049.181.039.311-.054l.455-.356 1.306-1.051c.12-.093.207-.164.233-.236.148.05.364-.033.372-.028l.047.068-.131.62zm2.162 3.503c-.169-.074-.52-.214-.979-.391l-.427-.164-.591-.213c-.027-.029-.007-.116.038-.122l.131.027c.202.049.244.051.408-.375l.586-1.525c.164-.426.132-.453-.05-.556l-.109-.061c-.021-.032.011-.114.054-.116l.573.235.55.198c.031.031.003.114-.038.122l-.097-.018c-.204-.045-.245-.047-.409.379l-.553 1.439c-.079.205-.127.356-.093.449.027.076.08.134.408.261.455.175.529.179.879-.17.049-.005.11.033.118.073-.099.16-.309.437-.401.528zm3.329-1.579c-.029.029-.104.021-.136-.018.022-.347-.04-.447-.498-.554l-.244-.057c-.111-.026-.117-.018-.159.161l-.432 1.849c-.106.454-.07.476.126.544l.15.053c.023.037.001.113-.037.122l-.626-.16-.666-.142c-.03-.025-.015-.112.02-.126l.185.02c.205.03.247.026.352-.428l.432-1.849c.042-.18.04-.189-.071-.215l-.24-.056c-.394-.092-.52-.072-.759.238-.036.019-.123-.015-.13-.062.127-.214.253-.464.318-.607l.051-.006.039.027c-.004.112.055.13.346.198l1.746.408c.21.049.277.051.351-.035l.056-.005.051.034c-.084.165-.204.525-.223.665zm3.485-.316l-.08.011c-.207.02-.247.032-.261.497l-.05 1.633c-.014.465.025.48.23.512l.096.016c.029.032.023.111-.013.127l-.584-.031-.593-.005c-.035-.019-.037-.098-.005-.128l.097-.01c.207-.02.247-.032.261-.497l.02-.646c.004-.118-.009-.128-.233-.134l-1.028-.032c-.224-.007-.237.001-.241.12l-.02.645c-.014.465.025.48.231.508l.131.021c.03.032.023.111-.013.127l-.619-.032-.558-.004c-.035-.019-.037-.098-.005-.128l.062-.007c.207-.025.247-.037.262-.502l.05-1.633c.014-.465-.025-.48-.23-.512l-.096-.016c-.03-.023-.023-.111.013-.127l.592.031.562.004c.034.019.036.107.005.128l-.075.011c-.207.02-.247.032-.262.497l-.016.531c-.004.123.009.132.233.139l1.027.032c.224.007.237-.001.241-.124l.016-.531c.014-.465-.025-.48-.23-.513l-.096-.016c-.03-.023-.023-.111.013-.127l.592.032.566.004c.035.019.037.106.005.128zm2.537 2.465c-.396.079-.646-.005-.742-.039-.096-.075-.212-.361-.261-.629.017-.048.089-.067.13-.044.122.204.446.618.869.533.327-.065.472-.301.42-.563-.049-.245-.205-.42-.565-.537l-.206-.066c-.359-.116-.696-.322-.774-.709-.086-.426.161-.852.789-.978.224-.045.398-.026.608-.028.066.085.167.361.207.563-.014.043-.091.063-.135.041-.11-.211-.318-.47-.684-.396-.344.069-.442.322-.396.55.036.181.2.35.515.443l.296.089c.309.09.673.295.76.73.098.491-.206.915-.831 1.04zm3.896-1.327l-.131.089c-.08.062-.34.235-.609.332-.409.148-.79.192-1.157.105-.414-.098-.802-.383-.998-.924-.175-.483-.095-.937.125-1.283.222-.341.596-.612 1.013-.763.235-.085.535-.147.748-.167l.124-.017c.043.092.139.333.291.623-.017.044-.09.074-.129.056-.164-.235-.474-.511-1.02-.314-.525.189-.919.753-.613 1.599.318.88 1.023 1.111 1.556.919.52-.188.622-.617.641-.928.024-.051.096-.058.13-.028.071.287.058.6.028.7zm1.711-.798l-.523.26-.519.288c-.039.001-.08-.067-.067-.109l.079-.057c.171-.119.2-.149-.017-.562l-.761-1.447c-.217-.412-.258-.405-.453-.333l-.092.033c-.041-.013-.074-.085-.051-.118l.531-.264.511-.283c.039-.001.08.067.067.109l-.08.057c-.17.119-.199.15.018.562l.761 1.446c.217.413.258.406.453.333l.092-.033c.041.013.075.085.052.117zm1.498-.972l-.411.287-.533.389c-.039.006-.088-.056-.08-.099l.123-.108c.157-.136.181-.17-.086-.552l-.938-1.34c-.267-.382-.307-.37-.494-.277l-.063.033c-.043-.008-.085-.075-.066-.11l.472-.314.688-.481c.23-.161.437-.311.479-.351l.408.46c.005.039-.061.097-.105.095-.204-.169-.321-.221-.456-.169-.1.033-.214.101-.311.169l-.242.169c-.155.109-.15.116-.006.321l.426.609c.065.094.071.095.154.037l.173-.121c.314-.219.372-.266.289-.438l-.061-.14c.011-.045.08-.093.118-.076l.241.368.275.37c-.001.038-.069.086-.113.084l-.126-.127c-.131-.134-.197-.098-.511.121l-.173.121c-.083.058-.081.068-.019.158l.32.457c.129.184.227.309.324.332.078.02.16.006.462-.206.463-.313.469-.473.391-.853.015-.048.083-.08.13-.059.085.166.197.495.214.628-.164.104-.476.317-.897.612zm3.441-2.928c-.115-.015-.311-.028-.789-.056l-1.558-.089c-.429-.021-.646-.038-.746-.031l.191.207.611.601c.235.231.526.511.673.55.075.018.146-.017.236-.083l.077-.06c.05-.007.106.055.085.096l-.361.348-.311.335c-.04.01-.1-.037-.097-.083l.052-.084c.049-.069.092-.137.064-.209-.057-.136-.33-.404-.577-.648l-.742-.73c-.244-.24-.291-.293-.487-.276-.062.007-.173.07-.226.105l-.056.038c-.04.003-.1-.061-.079-.102.13-.107.296-.282.373-.361l.203-.225c.187.079.918.126 1.144.133l.646.02c.274.01.892.045.942.033l-.066-.083-.611-.601c-.235-.231-.526-.511-.676-.547-.075-.018-.143.014-.232.08l-.08.063c-.05.007-.106-.055-.085-.096l.364-.351.314-.338c.041-.01.1.037.097.083l-.055.087c-.049.069-.089.135-.061.206.054.14.327.408.574.651l.749.736c.094.092.479.471.561.533.01.059-.021.115-.061.149zm1.912-2.832c-.029.098-.137.39-.298.626-.244.36-.527.619-.875.765-.392.164-.874.161-1.349-.163-.425-.289-.628-.703-.652-1.112-.021-.407.123-.846.372-1.213.141-.207.347-.433.507-.574l.091-.087c.089.05.308.188.602.334.012.045-.029.113-.071.121-.271-.094-.684-.135-1.01.345-.313.461-.302 1.149.443 1.654.774.526 1.48.299 1.798-.17.311-.458.141-.865-.026-1.127-.01-.055.044-.103.088-.099.226.191.4.452.434.55l-.054.149zm.972-1.848l-.207.456-.261.605c-.031.025-.104-.004-.119-.045l.051-.155c.066-.197.07-.238-.354-.431l-1.488-.677c-.424-.193-.453-.162-.566.013l-.037.06c-.041.015-.111-.021-.112-.061l.247-.511.347-.764c.117-.256.218-.49.234-.545l.585.189c.025.031-.004.114-.042.135-.261-.041-.388-.027-.478.086-.07.079-.133.196-.182.304l-.122.268c-.078.172-.07.176.158.28l.676.307c.104.047.11.045.152-.047l.087-.192c.158-.348.185-.418.026-.524l-.123-.09c-.014-.045.021-.121.062-.126l.395.194.425.179c.019.033-.016.109-.054.13l-.173-.045c-.181-.048-.219.016-.378.364l-.087.192c-.042.092-.035.1.064.145l.508.231c.204.093.352.151.447.121.078-.022.141-.076.293-.412.239-.504.163-.645-.097-.933-.011-.049.031-.111.082-.117.157.1.421.327.504.431-.088.172-.249.515-.462.983zm.946-2.317c-.115.388-.306.569-.381.639-.111.05-.418.019-.678-.063-.035-.038-.018-.111.022-.136.237-.013.756-.107.878-.52.095-.32-.046-.559-.303-.635-.241-.071-.468-.014-.738.249l-.155.152c-.271.263-.61.466-.989.354-.417-.123-.679-.54-.497-1.155.065-.219.163-.364.259-.551.106-.019.397.021.595.08.032.032.014.11-.027.139-.238-.002-.564.062-.67.421-.1.337.078.541.302.607.177.052.403-.014.633-.249l.216-.22c.224-.231.575-.458 1.001-.332.481.142.713.61.533 1.221zm-1.029-3.974c.024-.288.269-.499.561-.474.292.025.495.272.471.561-.024.289-.266.499-.558.475-.292-.025-.499-.273-.475-.561zm1.655-2.989l-.046-.121c-.066-.19-.157-.229-.575-.392-.271-.108-.531-.199-.796-.295-.247-.094-.343-.11-.638-.062l-.26.042c-.46.074-.467.115-.454.331l.009.168c-.025.035-.104.044-.127.012l-.093-.657-.115-.627c.012-.038.089-.055.125-.029l.04.136c.055.201.074.237.534.163l.256-.041c.243-.039.305-.067.516-.226l.944-.686c.171-.126.218-.169.225-.37l.008-.117c.026-.031.11-.035.129-.003l.075.549.103.553c-.012.038-.089.059-.124.029l-.043-.127-.071-.082-.213.115c-.345.234-.671.447-.96.671l1.041.353c.159.05.262.078.309.07l.049-.11.009-.135c.025-.035.099-.047.128-.007l.061.458.08.409c-.015.043-.085.054-.124.029z" sketch:type="MSShapeGroup"/><path d="M12.278 36.163l-.418.352c-.106.086-.094.093-.003.146l.395.229c.106.062.126.063.149-.046l.105-.549.068-.362-.008-.004-.288.234" sketch:type="MSShapeGroup"/><path d="M18.061 25.333c.212-.17 5.447-4.379 6.964-5.823.854-.813 1.048-1.781 1.025-2.555l.875 1.098c.465.854.725 2.44-.483 3.513-1.554 1.379-6.893 5.762-6.946 5.806-.026.022-1.596 1.047-1.153 3.09l-.695-.873c-1.702-2.363.325-4.179.414-4.257" sketch:type="MSShapeGroup"/><path d="M19.883 27.832c.047-.038 5.394-4.43 6.957-5.816.94-.833 1.107-1.91 1.055-2.745l.479.601s1.62 1.856-.303 3.609c-1.635 1.491-6.472 5.335-6.472 5.335s-2.393 1.948-.664 4.9l-1.358-1.704c-1.769-2.607.222-4.107.307-4.181" sketch:type="MSShapeGroup"/><path d="M15.753 22.68c.049-.041 5.414-4.417 6.962-5.821.973-.882 1.103-1.987 1.025-2.802l1.271 1.594-.055.005.062.005.135.17c.247.504.772 1.913-.544 3.243-1.455 1.471-6.882 5.754-6.936 5.797-.026.023-1.456 1.302-1.29 3.133l-.931-1.168c-1.706-2.326.211-4.081.3-4.157" sketch:type="MSShapeGroup"/><path d="M13.19 19.261s5.317-4.405 6.919-5.774c1.377-1.178.302-3.609.302-3.609l2.162 2.715c.292.524 1.246 2.425-.261 3.821-1.522 1.41-6.889 5.759-6.942 5.804-.023.019-1.438 1.189-1.236 2.963l-1.161-1.457c-1.924-2.611.217-4.462.217-4.462" sketch:type="MSShapeGroup"/></g></svg>